<svg width="17" height="17" viewBox="0 0 17 17" fill="none" xmlns="http://www.w3.org/2000/svg">
<path d="M14.5479 7.16667H5.21456V5.16667C5.21456 4.43133 5.81256 3.83333 6.54789 3.83333C7.28323 3.83333 7.88123 4.43133 7.88123 5.16667H9.21456C9.21456 3.696 8.01856 2.5 6.54789 2.5C5.07723 2.5 3.88123 3.696 3.88123 5.16667V7.16667H2.54789C2.37108 7.16667 2.20151 7.2369 2.07649 7.36193C1.95146 7.48695 1.88123 7.65652 1.88123 7.83333V9.16667C1.88123 10.904 2.99723 12.382 4.54789 12.9333V15.1667H5.88123V13.1667H11.2146V15.1667H12.5479V12.9333C14.0986 12.382 15.2146 10.904 15.2146 9.16667V7.83333C15.2146 7.65652 15.1443 7.48695 15.0193 7.36193C14.8943 7.2369 14.7247 7.16667 14.5479 7.16667ZM13.8812 9.16667C13.8812 10.6373 12.6852 11.8333 11.2146 11.8333H5.88123C4.41056 11.8333 3.21456 10.6373 3.21456 9.16667V8.5H13.8812V9.16667Z" fill="#2D3748"/>
</svg>
