<svg width="17" height="17" viewBox="0 0 17 17" fill="none" xmlns="http://www.w3.org/2000/svg">
<path d="M13.8812 6.87133V2.5H12.5479V3.83333H4.54789V2.5H3.21456V6.87133C2.42123 7.33333 1.88123 8.18333 1.88123 9.16667V11.8333C1.88123 12.0101 1.95146 12.1797 2.07649 12.3047C2.20151 12.4298 2.37108 12.5 2.54789 12.5H3.21456V15.1667H4.54789V12.5H12.5479V15.1667H13.8812V12.5H14.5479C14.7247 12.5 14.8943 12.4298 15.0193 12.3047C15.1443 12.1797 15.2146 12.0101 15.2146 11.8333V9.16667C15.2146 8.18333 14.6739 7.33333 13.8812 6.87133ZM12.5479 5.16667V6.5H9.21456V5.16667H12.5479ZM4.54789 5.16667H7.88123V6.5H4.54789V5.16667ZM13.8812 11.1667H3.21456V9.16667C3.21456 8.43133 3.81256 7.83333 4.54789 7.83333H12.5479C13.2832 7.83333 13.8812 8.43133 13.8812 9.16667V11.1667Z" fill="#2D3748"/>
</svg>
