<svg width="20" height="20" viewBox="0 0 20 20" fill="none" xmlns="http://www.w3.org/2000/svg">
<path d="M15.8333 1.66699H7.5C6.58083 1.66699 5.83333 2.41449 5.83333 3.33366V8.33366H4.16667C3.2475 8.33366 2.5 9.08116 2.5 10.0003V17.5003C2.5 17.7213 2.5878 17.9333 2.74408 18.0896C2.90036 18.2459 3.11232 18.3337 3.33333 18.3337H16.6667C16.8877 18.3337 17.0996 18.2459 17.2559 18.0896C17.4122 17.9333 17.5 17.7213 17.5 17.5003V3.33366C17.5 2.41449 16.7525 1.66699 15.8333 1.66699ZM4.16667 10.0003H9.16667V16.667H4.16667V10.0003ZM15.8333 16.667H10.8333V10.0003C10.8333 9.08116 10.0858 8.33366 9.16667 8.33366H7.5V3.33366H15.8333V16.667Z" fill="#553C9A"/>
<path d="M9.16732 5H10.834V6.66667H9.16732V5ZM12.5007 5H14.1673V6.66667H12.5007V5ZM12.5007 8.35917H14.1673V10H12.5007V8.35917ZM12.5007 11.6667H14.1673V13.3333H12.5007V11.6667ZM5.83398 11.6675H7.50065V13.3342H5.83398V11.6675Z" fill="#553C9A"/>
</svg>
