<svg width="12" height="12" viewBox="0 0 12 12"  xmlns="http://www.w3.org/2000/svg">
<path d="M7.99951 4.25H8.99951C8.99951 2.8315 7.62201 2.1845 6.49951 2.0355V1H5.49951V2.0355C4.37701 2.1845 2.99951 2.8315 2.99951 4.25C2.99951 5.603 4.33251 6.3065 5.49951 6.465V8.95C4.77551 8.8245 3.99951 8.438 3.99951 7.75H2.99951C2.99951 9.0445 4.21201 9.8095 5.49951 9.968V11H6.49951V9.965C7.62201 9.816 8.99951 9.1685 8.99951 7.75C8.99951 6.3315 7.62201 5.6845 6.49951 5.5355V3.05C7.16451 3.1695 7.99951 3.5205 7.99951 4.25ZM3.99951 4.25C3.99951 3.5205 4.83451 3.1695 5.49951 3.05V5.4495C4.81401 5.323 3.99951 4.9485 3.99951 4.25ZM7.99951 7.75C7.99951 8.4795 7.16451 8.8305 6.49951 8.95V6.55C7.16451 6.6695 7.99951 7.0205 7.99951 7.75Z" fill="currentColor"/>
</svg>
