<svg width="24" height="25" viewBox="0 0 24 25" fill="none" xmlns="http://www.w3.org/2000/svg">
<path d="M12 4.96962C10.9104 3.96773 9.48419 3.41167 8.00398 3.41162C7.22052 3.41244 6.44495 3.56818 5.72192 3.86989C4.99888 4.1716 4.34265 4.61332 3.79098 5.16962C1.43798 7.53262 1.43898 11.2286 3.79298 13.5816L11.125 20.9136C11.295 21.2126 11.623 21.4056 12 21.4056C12.1548 21.4041 12.3071 21.3663 12.4446 21.2953C12.5822 21.2243 12.7011 21.122 12.792 20.9966L20.207 13.5816C22.561 11.2276 22.561 7.53262 20.205 5.16562C19.6536 4.61034 18.9979 4.16952 18.2756 3.8685C17.5532 3.56749 16.7785 3.41222 15.996 3.41162C14.5158 3.41186 13.0897 3.96789 12 4.96962ZM18.791 6.57962C20.354 8.15062 20.355 10.6046 18.793 12.1676L12 18.9606L5.20698 12.1676C3.64498 10.6046 3.64598 8.15062 5.20498 6.58362C5.96498 5.82762 6.95898 5.41162 8.00398 5.41162C9.04898 5.41162 10.039 5.82762 10.793 6.58162L11.293 7.08162C11.3858 7.17457 11.496 7.2483 11.6173 7.29862C11.7386 7.34893 11.8686 7.37482 12 7.37482C12.1313 7.37482 12.2614 7.34893 12.3827 7.29862C12.504 7.2483 12.6142 7.17457 12.707 7.08162L13.207 6.58162C14.719 5.07262 17.281 5.07662 18.791 6.57962Z" fill="#2D3748"/>
</svg>
