<svg width="41" height="40" viewBox="0 0 41 40" fill="none" xmlns="http://www.w3.org/2000/svg">
<path d="M20.4999 23.3333C24.1766 23.3333 27.1666 20.3433 27.1666 16.6667C27.1666 12.99 24.1766 10 20.4999 10C16.8233 10 13.8333 12.99 13.8333 16.6667C13.8333 20.3433 16.8233 23.3333 20.4999 23.3333ZM20.4999 13.3333C22.3383 13.3333 23.8333 14.8283 23.8333 16.6667C23.8333 18.505 22.3383 20 20.4999 20C18.6616 20 17.1666 18.505 17.1666 16.6667C17.1666 14.8283 18.6616 13.3333 20.4999 13.3333Z" fill="#E9D8FD"/>
<path d="M19.5333 36.3568C19.8154 36.5583 20.1534 36.6666 20.5 36.6666C20.8466 36.6666 21.1846 36.5583 21.4667 36.3568C21.9733 35.9985 33.8817 27.4002 33.8333 16.6668C33.8333 9.31516 27.8517 3.3335 20.5 3.3335C13.1483 3.3335 7.16665 9.31516 7.16665 16.6585C7.11832 27.4002 19.0267 35.9985 19.5333 36.3568ZM20.5 6.66683C26.015 6.66683 30.5 11.1518 30.5 16.6752C30.535 24.0718 23.1867 30.7135 20.5 32.8918C17.815 30.7118 10.465 24.0685 10.5 16.6668C10.5 11.1518 14.985 6.66683 20.5 6.66683Z" fill="#E9D8FD"/>
</svg>
