<svg width="22" height="23" viewBox="0 0 22 23" fill="none" xmlns="http://www.w3.org/2000/svg">
<path d="M5.0664 14.1132C5.86525 14.1086 6.6336 13.8059 7.22078 13.2642L12.9354 16.5323C12.8626 16.7845 12.8257 17.0457 12.8258 17.3082C12.8199 18.0491 13.0695 18.7693 13.5325 19.3476C13.9955 19.926 14.6437 20.3271 15.3679 20.4835C16.092 20.6399 16.848 20.542 17.5084 20.2063C18.1688 19.8706 18.6934 19.3176 18.9938 18.6404C19.2942 17.9631 19.3521 17.2031 19.1577 16.4882C18.9633 15.7733 18.5285 15.1472 17.9265 14.7154C17.3245 14.2835 16.5921 14.0723 15.8526 14.1172C15.1131 14.1622 14.4117 14.4606 13.8665 14.9621L8.15191 11.6941C8.22087 11.4691 8.25775 11.2355 8.26145 11.0003L13.8756 7.78697C14.4179 8.27704 15.1122 8.56573 15.8421 8.60463C16.572 8.64353 17.2931 8.43028 17.8844 8.00063C18.4757 7.57099 18.9013 6.95108 19.0898 6.24488C19.2783 5.53868 19.2183 4.78914 18.9197 4.12196C18.6212 3.45478 18.1023 2.91055 17.4501 2.58053C16.798 2.25051 16.0521 2.15479 15.3377 2.30941C14.6234 2.46402 13.9839 2.85958 13.5265 3.42974C13.0691 3.9999 12.8218 4.70998 12.8258 5.4409C12.8289 5.70317 12.8657 5.96396 12.9354 6.21684L7.74112 9.18367C7.44015 8.71806 7.02321 8.33878 6.53127 8.08311C6.03934 7.82744 5.48934 7.70418 4.93534 7.72543C4.38134 7.74669 3.8424 7.91174 3.37151 8.20435C2.90061 8.49697 2.51395 8.90708 2.24955 9.39438C1.98515 9.88167 1.85209 10.4294 1.86347 10.9837C1.87484 11.538 2.03025 12.0798 2.31442 12.5558C2.59859 13.0318 3.00174 13.4257 3.48424 13.6988C3.96675 13.9719 4.512 14.1147 5.0664 14.1132ZM16.0209 15.9389C16.2917 15.9389 16.5564 16.0192 16.7816 16.1697C17.0068 16.3201 17.1823 16.534 17.2859 16.7842C17.3896 17.0344 17.4167 17.3097 17.3639 17.5754C17.311 17.841 17.1806 18.085 16.9891 18.2765C16.7976 18.468 16.5536 18.5984 16.288 18.6512C16.0224 18.704 15.7471 18.6769 15.4968 18.5733C15.2466 18.4697 15.0328 18.2941 14.8823 18.069C14.7319 17.8438 14.6516 17.579 14.6516 17.3082C14.6516 16.9451 14.7958 16.5968 15.0526 16.34C15.3094 16.0832 15.6577 15.9389 16.0209 15.9389ZM16.0209 4.07159C16.2917 4.07159 16.5564 4.1519 16.7816 4.30236C17.0068 4.45282 17.1823 4.66668 17.2859 4.91688C17.3896 5.16709 17.4167 5.44241 17.3639 5.70803C17.311 5.97365 17.1806 6.21764 16.9891 6.40914C16.7976 6.60064 16.5536 6.73106 16.288 6.78389C16.0224 6.83673 15.7471 6.80961 15.4968 6.70597C15.2466 6.60233 15.0328 6.42682 14.8823 6.20164C14.7319 5.97646 14.6516 5.71172 14.6516 5.4409C14.6516 5.07773 14.7958 4.72944 15.0526 4.47265C15.3094 4.21585 15.6577 4.07159 16.0209 4.07159ZM5.0664 9.54881C5.33723 9.54881 5.60197 9.62912 5.82715 9.77958C6.05233 9.93005 6.22784 10.1439 6.33148 10.3941C6.43512 10.6443 6.46223 10.9196 6.4094 11.1853C6.35656 11.4509 6.22615 11.6949 6.03465 11.8864C5.84315 12.0779 5.59916 12.2083 5.33354 12.2611C5.06792 12.314 4.7926 12.2868 4.54239 12.1832C4.29219 12.0796 4.07833 11.904 3.92787 11.6789C3.77741 11.4537 3.6971 11.1889 3.6971 10.9181C3.6971 10.555 3.84136 10.2067 4.09816 9.94987C4.35495 9.69308 4.70324 9.54881 5.0664 9.54881Z" fill="#2D3748"/>
</svg>
