<svg width="148" height="32" viewBox="0 0 148 32" fill="none" xmlns="http://www.w3.org/2000/svg">
<path d="M15.9773 0C11.7398 0 7.67595 1.68571 4.67963 4.68629C1.68331 7.68687 0 11.7565 0 16C0 20.2435 1.68331 24.3131 4.67963 27.3137C7.67595 30.3143 11.7398 32 15.9773 32C19.4908 32 22.1648 31.4981 24.1804 30.4648C26.9395 29.0481 28.3393 26.6759 28.3393 23.4111C28.3391 22.2264 28.0478 21.06 27.4912 20.0146C26.9346 18.9693 26.1297 18.0771 25.1476 17.4167C25.1365 17.4167 25.1254 17.3963 25.1143 17.3889L22.5494 15.7222C23.3168 15.074 23.8663 14.2049 24.1233 13.2331C24.3803 12.2612 24.3324 11.2337 23.986 10.2901C23.6396 9.34651 23.0115 8.53256 22.1871 7.95884C21.3627 7.38512 20.3819 7.07944 19.378 7.08333H8.87441C8.7765 7.08211 8.67932 7.10036 8.58851 7.13704C8.49769 7.17372 8.41506 7.22808 8.34539 7.29699C8.27572 7.3659 8.2204 7.44797 8.18266 7.53845C8.14491 7.62893 8.12547 7.72601 8.12548 7.82407V16.8981L5.33685 18.7148C5.20137 18.8034 5.09807 18.9334 5.04234 19.0855C4.98662 19.2376 4.98144 19.4036 5.02758 19.5589C5.07373 19.7142 5.16873 19.8504 5.29843 19.9472C5.42813 20.044 5.5856 20.0963 5.74738 20.0963C5.89263 20.0966 6.03477 20.0541 6.15606 19.9741L8.13472 18.7037V24.3185C8.12968 24.4203 8.14533 24.522 8.18074 24.6175C8.21614 24.713 8.27056 24.8003 8.34069 24.8741C8.41082 24.9479 8.49519 25.0067 8.58869 25.0468C8.68218 25.087 8.78285 25.1077 8.88458 25.1077C8.98631 25.1077 9.08698 25.087 9.18048 25.0468C9.27398 25.0067 9.35835 24.9479 9.42848 24.8741C9.49861 24.8003 9.55302 24.713 9.58843 24.6175C9.62384 24.522 9.63949 24.4203 9.63444 24.3185V17.7241H9.64369L16.2491 13.4074L24.2877 18.6481L24.3099 18.6611C25.0883 19.1829 25.7263 19.8888 26.1676 20.7163C26.6088 21.5438 26.8396 22.4675 26.8396 23.4056C26.8396 28.1741 23.2872 30.4926 15.9791 30.4926C13.1157 30.4933 10.3164 29.6437 7.9352 28.0513C5.55397 26.4588 3.69777 24.195 2.60132 21.5461C1.50488 18.8972 1.21743 15.9821 1.77533 13.1696C2.33323 10.3571 3.71143 7.77345 5.73563 5.74533C7.75984 3.7172 10.3391 2.33573 13.1474 1.7756C15.9556 1.21546 18.8666 1.50183 21.5123 2.59849C24.158 3.69514 26.4196 5.55282 28.011 7.93663C29.6024 10.3204 30.4522 13.1233 30.453 15.9907C30.453 16.1901 30.5321 16.3814 30.6729 16.5224C30.8137 16.6634 31.0046 16.7426 31.2038 16.7426C31.4029 16.7426 31.5938 16.6634 31.7346 16.5224C31.8754 16.3814 31.9545 16.1901 31.9545 15.9907C31.9477 11.7502 30.2619 7.68551 27.2668 4.68789C24.2717 1.69026 20.2118 0.00440705 15.9773 0ZM21.205 14.8444L16.6707 11.8815H16.6615L16.6153 11.8519C16.5898 11.8342 16.5625 11.8193 16.5339 11.8074C16.5117 11.8074 16.4895 11.7944 16.4655 11.787L16.3952 11.7667C16.3693 11.7667 16.3453 11.7667 16.3212 11.7667C16.2972 11.7667 16.275 11.7667 16.2491 11.7667H16.1807C16.1566 11.7667 16.1308 11.7667 16.1049 11.7667L16.0364 11.7852L15.9662 11.8074C15.9373 11.82 15.9095 11.8349 15.883 11.8519L15.8404 11.8722L9.6289 15.9259V8.58519H19.378C20.1112 8.58601 20.8244 8.82463 21.4109 9.26535C21.9974 9.70606 22.4255 10.3251 22.6312 11.0299C22.8369 11.7347 22.8092 12.4872 22.5521 13.1749C22.295 13.8625 21.8224 14.4483 21.205 14.8444Z" fill="black"/>
<path d="M53.3765 11.964C52.846 10.8753 52.0097 9.96402 50.9694 9.34104C49.9343 8.72883 48.7101 8.42199 47.2921 8.42199C46.3077 8.40638 45.3301 8.58641 44.4162 8.95159C43.58 9.28463 42.8318 9.80501 42.2294 10.4725C41.6092 11.1669 41.1364 11.9793 40.8395 12.8609C40.5083 13.8714 40.3479 14.9298 40.3648 15.9927C40.3648 17.5284 40.6458 18.8694 41.2136 20.0038C41.7447 21.1014 42.5867 22.0195 43.6355 22.6444C44.6779 23.2714 45.9007 23.5782 47.2995 23.5782C48.2785 23.5917 49.2508 23.4148 50.1621 23.0575C50.9938 22.7148 51.7384 22.1912 52.3415 21.5247C52.9676 20.8256 53.4431 20.0057 53.7388 19.1157C54.0717 18.102 54.2346 17.0403 54.2208 15.9736C54.2267 14.432 53.9443 13.0984 53.3765 11.964ZM51.4041 19.0759C51.0761 19.8685 50.5198 20.5461 49.8057 21.0232C49.0518 21.4881 48.178 21.7224 47.2921 21.6973C45.8135 21.6973 44.6779 21.1899 43.8558 20.1838C43.0337 19.1777 42.6241 17.7807 42.6241 15.9927C42.6241 14.786 42.8114 13.7593 43.186 12.9125C43.5064 12.1167 44.0645 11.4384 44.7844 10.9697C45.4734 10.5271 46.3162 10.3088 47.298 10.3088C48.7825 10.3088 49.9324 10.8044 50.7476 11.7958C51.5564 12.7915 51.9645 14.1841 51.9645 15.9927C51.9605 17.1936 51.7737 18.2213 51.4041 19.0759Z" fill="black"/>
<path d="M68.3104 8.46477C68.1739 8.45604 68.037 8.47566 67.9085 8.52238C67.78 8.5691 67.6626 8.64191 67.5637 8.73621C67.3793 8.94334 67.2847 9.21492 67.3005 9.49151V19.787L59.1667 9.09911C59.0343 8.91243 58.8748 8.74639 58.6936 8.60639C58.5192 8.50481 58.3184 8.45755 58.1169 8.47067C57.986 8.4647 57.8554 8.48676 57.7337 8.53536C57.612 8.58396 57.5022 8.65798 57.4116 8.75243C57.2245 8.97828 57.1308 9.26694 57.1499 9.55937V22.4969C57.1406 22.638 57.16 22.7795 57.207 22.9128C57.254 23.0462 57.3277 23.1687 57.4235 23.2729C57.5243 23.3671 57.6432 23.4399 57.7731 23.4868C57.903 23.5337 58.0411 23.5538 58.179 23.5458C58.3146 23.5554 58.4507 23.536 58.5782 23.489C58.7057 23.4419 58.8217 23.3682 58.9183 23.2729C59.0979 23.0555 59.1878 22.778 59.1697 22.4969V12.1705L67.302 22.8982C67.4425 23.0952 67.6173 23.2656 67.818 23.4012C68.0071 23.506 68.2214 23.557 68.4376 23.5487C68.5581 23.5534 68.6782 23.5313 68.7891 23.4841C68.9001 23.4369 68.9992 23.3658 69.0793 23.2758C69.2502 23.0623 69.3361 22.7933 69.3203 22.5205V9.49151C69.3364 9.21694 69.2464 8.94664 69.0689 8.73621C68.9689 8.64008 68.8495 8.56619 68.7188 8.5194C68.5881 8.47261 68.4489 8.45399 68.3104 8.46477Z" fill="black"/>
<path d="M81.6178 10.3722C81.7399 10.387 81.8638 10.3739 81.9801 10.3338C82.0964 10.2937 82.202 10.2277 82.289 10.1409C82.3759 10.054 82.4419 9.94851 82.4818 9.83243C82.5218 9.71634 82.5348 9.59269 82.5197 9.47086C82.5278 9.35402 82.5115 9.23678 82.4718 9.12656C82.4321 9.01635 82.3699 8.91557 82.2891 8.83062C82.1025 8.67295 81.8617 8.59409 81.6178 8.61081H73.9409C73.7825 8.60047 73.6236 8.62205 73.4737 8.67426C73.3239 8.72647 73.1861 8.80824 73.0685 8.9147C72.9618 9.03197 72.8799 9.16946 72.8275 9.31899C72.7752 9.46852 72.7536 9.62703 72.7639 9.78508V22.2181C72.7446 22.3777 72.7619 22.5396 72.8145 22.6916C72.8672 22.8435 72.9537 22.9816 73.0676 23.0952C73.1816 23.2089 73.32 23.2953 73.4723 23.3478C73.6246 23.4003 73.7868 23.4175 73.9468 23.3983H81.6178C81.8617 23.415 82.1025 23.3361 82.2891 23.1785C82.3711 23.0901 82.434 22.9858 82.4737 22.8721C82.5134 22.7583 82.5291 22.6376 82.5197 22.5176C82.5269 22.3992 82.5102 22.2807 82.4706 22.1689C82.431 22.0572 82.3692 21.9545 82.2891 21.867C82.198 21.7863 82.0918 21.7245 81.9765 21.6853C81.8613 21.646 81.7393 21.6301 81.6178 21.6383H74.865V16.7702H81.1491C81.272 16.7803 81.3956 16.766 81.5129 16.728C81.6302 16.69 81.7387 16.6291 81.8322 16.5489C81.9117 16.4586 81.9721 16.3534 82.01 16.2393C82.0478 16.1253 82.0623 16.0048 82.0525 15.885C82.0682 15.7637 82.0555 15.6403 82.0154 15.5246C81.9753 15.409 81.9089 15.3041 81.8214 15.2184C81.7338 15.1326 81.6276 15.0683 81.5109 15.0304C81.3943 14.9925 81.2704 14.982 81.1491 14.9999H74.865V10.3722H81.6178Z" fill="black"/>
<path d="M101.194 16.8203C100.703 16.308 100.074 15.9492 99.3817 15.7877C99.9781 15.5763 100.51 15.2156 100.927 14.7403C101.465 14.108 101.75 13.2993 101.727 12.4699C101.748 11.7371 101.548 11.0149 101.152 10.3973C100.74 9.80069 100.161 9.33878 99.4867 9.0696C98.7651 8.75686 97.8957 8.60491 96.8725 8.60491H91.866C91.7078 8.59477 91.5492 8.61673 91.3998 8.66947C91.2503 8.72221 91.1132 8.80463 90.9966 8.91175C90.8885 9.02733 90.8054 9.16385 90.7525 9.31282C90.6996 9.46179 90.678 9.62003 90.689 9.7777V22.2122C90.6691 22.3719 90.686 22.5341 90.7384 22.6863C90.7908 22.8385 90.8773 22.9768 90.9914 23.0906C91.1055 23.2045 91.2441 23.2908 91.3967 23.3431C91.5493 23.3954 91.7118 23.4122 91.8719 23.3924H97.1268C98.6927 23.3924 99.9155 23.0398 100.785 22.3332C101.654 21.6265 102.082 20.619 102.082 19.3046C102.078 18.2818 101.782 17.4537 101.194 16.8203ZM92.7901 10.2881H96.5339C97.5438 10.2881 98.3082 10.4887 98.8213 10.8974C99.3344 11.306 99.602 11.8961 99.602 12.678C99.602 13.4598 99.3418 14.0514 98.8213 14.46C98.3008 14.8686 97.5438 15.0663 96.5339 15.0663H92.7901V10.2881ZM99.2013 21.0969C98.6927 21.51 97.9179 21.718 96.8681 21.718H92.7901V16.748H96.8681C97.9179 16.748 98.6927 16.9457 99.2013 17.3543C99.71 17.763 99.9569 18.387 99.9569 19.222C99.9569 20.0569 99.7026 20.6839 99.2013 21.0969Z" fill="black"/>
<path d="M117.864 22.137L112.167 9.39415C112.066 9.10632 111.88 8.85583 111.633 8.67572C111.425 8.53762 111.181 8.46326 110.931 8.46182C110.673 8.45982 110.42 8.53426 110.204 8.67572C109.955 8.85458 109.768 9.1054 109.667 9.39415L103.968 22.1414C103.863 22.3618 103.82 22.6065 103.843 22.8495C103.855 22.9494 103.888 23.0457 103.939 23.1327C103.989 23.2197 104.057 23.2954 104.138 23.3555C104.337 23.4903 104.575 23.5561 104.816 23.5428C105.059 23.5546 105.299 23.4763 105.488 23.323C105.695 23.1206 105.853 22.8746 105.951 22.6031L107.149 19.787H114.65L115.868 22.6031C115.976 22.872 116.14 23.1148 116.349 23.3156C116.56 23.4778 116.822 23.5585 117.088 23.5428C117.32 23.5574 117.55 23.4946 117.743 23.3643C117.82 23.3029 117.884 23.2267 117.931 23.1404C117.978 23.054 118.007 22.9591 118.016 22.8613C118.034 22.6104 117.982 22.3596 117.864 22.137ZM107.921 18.0285L110.878 11.0228H110.924L113.899 18.0285H107.921Z" fill="black"/>
<path d="M133.33 22.137L127.633 9.39415C127.531 9.10775 127.345 8.85886 127.098 8.68015C126.89 8.54188 126.646 8.46752 126.396 8.46624C126.137 8.46425 125.884 8.53868 125.668 8.68015C125.421 8.85806 125.234 9.10722 125.133 9.39415L119.436 22.1414C119.332 22.3622 119.29 22.6069 119.315 22.8495C119.325 22.9492 119.356 23.0458 119.405 23.1329C119.455 23.2201 119.522 23.2959 119.603 23.3555C119.802 23.4903 120.039 23.5561 120.279 23.5428C120.523 23.5547 120.763 23.4764 120.953 23.323C121.158 23.1201 121.316 22.8742 121.414 22.6031L122.612 19.787H130.116L131.333 22.6031C131.44 22.872 131.604 23.1148 131.813 23.3156C132.025 23.4771 132.287 23.5577 132.553 23.5428C132.783 23.5564 133.012 23.4936 133.203 23.3643C133.281 23.3036 133.345 23.2276 133.392 23.1411C133.439 23.0546 133.468 22.9593 133.477 22.8613C133.498 22.6108 133.448 22.3594 133.33 22.137ZM123.394 18.0285L126.351 11.0228H126.397L129.377 18.0285H123.394Z" fill="black"/>
<path d="M147.745 8.73621C147.534 8.56075 147.269 8.46465 146.994 8.46465C146.72 8.46465 146.454 8.56075 146.243 8.73621C146.151 8.8386 146.081 8.95803 146.036 9.08765C145.991 9.21727 145.972 9.35452 145.98 9.49151V19.787L137.848 9.09911C137.715 8.91243 137.556 8.74639 137.374 8.60639C137.199 8.50469 136.998 8.45744 136.796 8.47067C136.666 8.46492 136.535 8.48708 136.414 8.53567C136.292 8.58426 136.183 8.65817 136.092 8.75243C135.904 8.97777 135.81 9.26666 135.829 9.55937V22.4969C135.82 22.6379 135.84 22.7793 135.887 22.9127C135.934 23.046 136.007 23.1685 136.103 23.2729C136.204 23.367 136.323 23.4397 136.453 23.4866C136.583 23.5335 136.722 23.5536 136.86 23.5458C136.995 23.5556 137.132 23.5363 137.259 23.4892C137.387 23.4422 137.503 23.3684 137.599 23.2729C137.78 23.056 137.87 22.7783 137.852 22.4969V12.1705L145.984 22.8982C146.124 23.0959 146.299 23.2664 146.5 23.4012C146.689 23.506 146.904 23.557 147.12 23.5487C147.241 23.5509 147.36 23.5262 147.47 23.4764C147.58 23.4267 147.678 23.3531 147.756 23.2611C147.928 23.0481 148.014 22.7788 147.998 22.5058V9.49151C148.014 9.21666 147.924 8.94612 147.745 8.73621Z" fill="black"/>
</svg>
