<svg width="40" height="40" viewBox="0 0 40 40" fill="none" xmlns="http://www.w3.org/2000/svg">
<path d="M36.6666 34.9998C34.8166 34.9998 33.7833 34.3831 33.0333 33.9331C32.4166 33.5664 32.0333 33.3331 31.1166 33.3331C30.1833 33.3331 29.8166 33.5498 29.1999 33.9331C28.4333 34.3831 27.4166 34.9998 25.5666 34.9998C23.7166 34.9998 22.6833 34.3831 21.9333 33.9331C21.3166 33.5664 20.9333 33.3331 20.0166 33.3331C19.0833 33.3331 18.7166 33.5498 18.0999 33.9331C17.3333 34.3831 16.2999 34.9998 14.4499 34.9998C12.5999 34.9998 11.5666 34.3831 10.8166 33.9331C10.1999 33.5498 9.81659 33.3331 8.89992 33.3331C7.98325 33.3331 7.59992 33.5498 6.98325 33.9331C6.21659 34.3831 5.18325 34.9998 3.33325 34.9998V31.6664C4.26659 31.6664 4.63325 31.4498 5.24992 31.0664C6.01659 30.6164 7.04992 29.9998 8.89992 29.9998C10.7499 29.9998 11.7833 30.6164 12.5333 31.0664C13.1499 31.4498 13.5166 31.6664 14.4499 31.6664C15.3833 31.6664 15.7499 31.4498 16.3666 31.0664C17.1333 30.6164 18.1666 29.9998 20.0166 29.9998C21.8666 29.9998 22.8999 30.6164 23.6499 31.0664C24.2666 31.4331 24.6499 31.6664 25.5666 31.6664C26.4833 31.6664 26.8666 31.4498 27.4833 31.0664C28.2333 30.6164 29.2666 29.9998 31.1166 29.9998C32.9666 29.9998 33.9999 30.6164 34.7499 31.0664C35.3666 31.4498 35.7333 31.6664 36.6666 31.6664V34.9998ZM36.6666 27.4998C34.8166 27.4998 33.7833 26.8831 33.0333 26.4331C32.4166 26.0664 32.0333 25.8331 31.1166 25.8331C30.1833 25.8331 29.8166 26.0498 29.1999 26.4331C28.4499 26.8831 27.4166 27.4998 25.5666 27.4998C23.7166 27.4998 22.6833 26.8831 21.9333 26.4331C21.3166 26.0664 20.9333 25.8331 20.0166 25.8331C19.0833 25.8331 18.7166 26.0498 18.0999 26.4331C17.3499 26.8831 16.3166 27.4998 14.4666 27.4998C12.6166 27.4998 11.5833 26.8831 10.8333 26.4331C10.2166 26.0664 9.83325 25.8331 8.91659 25.8331C7.99992 25.8331 7.61659 26.0498 6.99992 26.4331C6.21659 26.8831 5.18325 27.4998 3.33325 27.4998V24.1664C4.26659 24.1664 4.63325 23.9498 5.24992 23.5664C5.99992 23.1164 7.03325 22.4998 8.88325 22.4998C10.7333 22.4998 11.7666 23.1164 12.5166 23.5664C13.1333 23.9331 13.5166 24.1664 14.4333 24.1664C15.3666 24.1664 15.7333 23.9498 16.3499 23.5664C17.0999 23.1164 18.1333 22.4998 19.9833 22.4998C21.8333 22.4998 22.8666 23.1164 23.6166 23.5664C24.2333 23.9331 24.6166 24.1664 25.5333 24.1664C26.4499 24.1664 26.8333 23.9498 27.4499 23.5664C28.1999 23.1164 29.2333 22.4998 31.0833 22.4998C32.9333 22.4998 33.9666 23.1164 34.7166 23.5664C35.3333 23.9331 35.7166 24.1664 36.6333 24.1664V27.4998H36.6666ZM14.4499 19.9998C15.3833 19.9998 15.7499 19.7831 16.3666 19.3998C17.1333 18.9498 18.1666 18.3331 20.0166 18.3331C21.8666 18.3331 22.8999 18.9498 23.6499 19.3998C24.2666 19.7664 24.6499 19.9998 25.5666 19.9998C26.4833 19.9998 26.8666 19.7831 27.4833 19.3998C27.6833 19.2831 27.9166 19.1498 28.1666 19.0164L17.4666 8.33311C14.8833 5.74978 12.4999 4.98311 8.33325 4.99978V9.16644C11.3666 9.14978 13.1499 9.81644 14.9999 11.6664L16.6666 13.3331L11.2499 18.7498C11.7666 18.9498 12.1833 19.1998 12.5333 19.3998C13.1499 19.7831 13.5166 19.9998 14.4499 19.9998Z" fill="#E9D8FD"/>
<path d="M27.4999 13.3333C29.8011 13.3333 31.6666 11.4679 31.6666 9.16667C31.6666 6.86548 29.8011 5 27.4999 5C25.1987 5 23.3333 6.86548 23.3333 9.16667C23.3333 11.4679 25.1987 13.3333 27.4999 13.3333Z" fill="#E9D8FD"/>
</svg>
