<svg width="22" height="22" viewBox="0 0 22 22" fill="none" xmlns="http://www.w3.org/2000/svg">
<path d="M15.587 4.58301H8.24998C6.56515 4.58301 4.96281 5.25859 3.73631 6.48601C2.5089 7.71342 1.83331 9.31576 1.83331 10.9997C1.83331 12.6845 2.5089 14.2868 3.73631 15.5133C4.96281 16.7408 6.56515 17.4163 8.24998 17.4163H15.5833V15.583H8.24998C7.05556 15.583 5.91248 15.0981 5.03248 14.2172C4.15156 13.3372 3.66665 12.1941 3.66665 10.9997C3.66665 9.80617 4.15156 8.66309 5.03248 7.78217C5.91248 6.90126 7.05556 6.41634 8.24998 6.41634H15.5833V5.49967L15.5842 6.41634H15.587C16.3111 6.41634 16.9977 6.70417 17.5202 7.22851C18.0436 7.75192 18.3324 8.44034 18.3333 9.16817C18.333 9.52816 18.2612 9.8845 18.1221 10.2165C17.983 10.5486 17.7794 10.8496 17.523 11.1023C17.2693 11.3592 16.9673 11.5633 16.6344 11.703C16.3015 11.8427 15.9443 11.9152 15.5833 11.9163H8.24998C8.13048 11.9149 8.01243 11.8899 7.90263 11.8427C7.79283 11.7955 7.69343 11.7271 7.61015 11.6413C7.52393 11.558 7.45507 11.4583 7.40756 11.3482C7.36004 11.2381 7.33481 11.1196 7.33331 10.9997C7.33331 10.7687 7.43415 10.5349 7.60923 10.3598C7.69238 10.2736 7.79184 10.2047 7.90183 10.1571C8.01183 10.1096 8.13017 10.0844 8.24998 10.083H15.5833V8.24967H8.24998C7.52581 8.24967 6.8374 8.53842 6.31215 9.06459C5.78781 9.58892 5.49998 10.2764 5.49998 10.9997C5.49998 11.7229 5.78781 12.4113 6.31398 12.9375C6.56698 13.1941 6.86836 13.398 7.20066 13.5374C7.53297 13.6768 7.88962 13.749 8.24998 13.7497H15.5842C16.1857 13.7492 16.7812 13.6297 17.3363 13.398C17.8913 13.1662 18.395 12.8268 18.8182 12.3994C19.2452 11.9761 19.584 11.4723 19.8153 10.9173C20.0465 10.3623 20.1655 9.76696 20.1654 9.16569C20.1653 8.56443 20.0462 7.96913 19.8148 7.41417C19.5834 6.85921 19.2444 6.35558 18.8173 5.93234C18.3951 5.50471 17.8921 5.16523 17.3375 4.93359C16.783 4.70196 16.188 4.58279 15.587 4.58301Z" fill="#553C9A"/>
</svg>
