<svg width="41" height="40" viewBox="0 0 41 40" fill="none" xmlns="http://www.w3.org/2000/svg">
<path d="M32.1667 8.33333V31.6667H8.83333V8.33333H32.1667ZM34 5H7C6.16667 5 5.5 5.66667 5.5 6.5V33.5C5.5 34.1667 6.16667 35 7 35H34C34.6667 35 35.5 34.1667 35.5 33.5V6.5C35.5 5.66667 34.6667 5 34 5ZM18.8333 11.6667H28.8333V15H18.8333V11.6667ZM18.8333 18.3333H28.8333V21.6667H18.8333V18.3333ZM18.8333 25H28.8333V28.3333H18.8333V25ZM12.1667 11.6667H15.5V15H12.1667V11.6667ZM12.1667 18.3333H15.5V21.6667H12.1667V18.3333ZM12.1667 25H15.5V28.3333H12.1667V25Z" fill="#E9D8FD"/>
</svg>
