<svg viewBox="0 0 31 31" xmlns="http://www.w3.org/2000/svg" aria-hidden="true">
  <rect x="0" y="0" width="31" height="31" rx="10"
        fill="none" fill-opacity="0.04"/>
<path d="M15.5478 8.74012C14.5531 7.82552 13.2512 7.31791 11.8999 7.31787C11.1847 7.31862 10.4768 7.46079 9.81672 7.73621C9.15668 8.01163 8.55762 8.41486 8.05402 8.9227C5.90604 11.0798 5.90695 14.4538 8.05585 16.6018L14.749 23.2949C14.9042 23.5679 15.2036 23.7441 15.5478 23.7441C15.6891 23.7427 15.8281 23.7082 15.9537 23.6434C16.0792 23.5785 16.1878 23.4851 16.2708 23.3707L23.0397 16.6018C25.1886 14.4529 25.1886 11.0798 23.0379 8.91905C22.5345 8.41214 21.936 8.00973 21.2766 7.73495C20.6172 7.46016 19.91 7.31842 19.1956 7.31787C17.8444 7.31809 16.5425 7.82568 15.5478 8.74012ZM21.7471 10.2098C23.1739 11.644 23.1748 13.8842 21.7489 15.311L15.5478 21.5121L9.34665 15.311C7.92074 13.8842 7.92166 11.644 9.34482 10.2135C10.0386 9.52337 10.946 9.14361 11.8999 9.14361C12.8539 9.14361 13.7576 9.52337 14.4459 10.2117L14.9024 10.6681C14.9871 10.753 15.0877 10.8203 15.1984 10.8662C15.3092 10.9121 15.4279 10.9358 15.5478 10.9358C15.6677 10.9358 15.7864 10.9121 15.8971 10.8662C16.0079 10.8203 16.1085 10.753 16.1932 10.6681L16.6496 10.2117C18.0299 8.83415 20.3687 8.8378 21.7471 10.2098Z" fill="currentColor"/>
</svg>
