<svg width="44" height="44" viewBox="0 0 44 44" fill="none" xmlns="http://www.w3.org/2000/svg">
<rect width="44" height="44" rx="22" fill="white"/>
<path d="M12.7017 25.475C11.9489 25.949 11.5079 26.2472 11.0498 26.5131C10.4669 26.8499 9.78939 27.1566 9.3291 26.4574C8.86882 25.7581 9.27533 25.1919 9.93995 24.7865C10.6046 24.3811 11.181 23.9286 11.8392 23.5747C12.4973 23.2208 12.7189 22.7296 12.7124 22.0089C12.6888 19.1499 12.6952 16.2908 12.7124 13.4295C12.7124 11.7458 12.9426 11.5378 14.6482 11.5356C18.124 11.5356 21.6019 11.5742 25.0777 11.5228C27.7685 11.482 29.9753 12.2842 31.1905 14.8301C32.3713 17.3031 31.8057 19.5488 29.9624 21.6786C30.7689 22.2148 31.5454 22.7511 32.3455 23.2615C35.3159 25.134 36.6709 27.8601 36.4988 31.3112C36.3096 35.0561 34.4663 37.7715 30.9625 39.1463C29.2632 39.802 27.4899 40.2486 25.6821 40.4761C19.9866 41.2097 14.674 40.208 10.1443 36.4438C6.00315 33.0063 3.73757 28.5922 3.34754 23.2015C2.67862 13.8092 9.25812 5.48929 18.4746 3.65115C28.8289 1.58351 39.082 8.87601 40.5102 19.3665C40.6135 20.1408 40.6608 20.9258 40.6973 21.7087C40.7296 22.38 40.5446 22.9677 39.7338 22.9677C38.9616 22.9677 38.6884 22.4315 38.6863 21.7451C38.6863 19.0061 37.9421 16.4645 36.6666 14.0537C33.593 8.26044 26.5296 4.56915 20.1243 5.44425C12.863 6.43946 7.00402 11.7523 5.65112 18.5472C3.78632 27.9845 9.83671 36.9049 19.3844 38.4235C23.0409 39.0026 26.7576 38.8117 30.2549 37.261C32.9822 36.0513 34.3953 33.8871 34.5114 30.968C34.6147 28.3684 33.3973 26.3716 31.2249 24.9624C28.5535 23.2229 25.8671 21.5092 23.2151 19.744C22.5892 19.3279 22.1225 19.2914 21.4815 19.7247C19.5264 21.0459 17.4959 22.2728 15.5602 23.6197C15.3535 23.7907 15.1833 24.0012 15.0596 24.2388C14.9358 24.4764 14.861 24.7363 14.8396 25.0032C14.7557 26.8585 14.8095 28.7202 14.7988 30.5798C14.7988 30.9701 14.8654 31.4377 14.6848 31.7337C14.4697 32.1026 14.0395 32.5252 13.6717 32.5638C13.4007 32.5916 12.8587 32.0619 12.8114 31.7251C12.6715 30.7792 12.7124 29.7948 12.7017 28.8424C12.6931 27.8172 12.7017 26.7963 12.7017 25.475ZM14.8224 21.6143C17.1066 20.1365 19.1629 18.8539 21.1632 17.4897C22.0106 16.9128 22.7032 16.9557 23.5119 17.5176C24.7723 18.3949 26.093 19.1777 27.3577 20.0614C27.9621 20.4904 28.3987 20.411 28.8095 19.8727C29.6828 18.7273 30.1 17.4854 29.5128 16.0763C28.9256 14.6671 27.9276 13.6483 26.407 13.5947C22.7957 13.5003 19.1758 13.5496 15.5602 13.5947C15.3128 13.5947 14.8611 14.0237 14.8547 14.266C14.8009 16.6103 14.8224 18.9568 14.8224 21.6036V21.6143Z" fill="#171923"/>
</svg>
