<svg width="12" height="12" viewBox="0 0 12 12" fill="none" xmlns="http://www.w3.org/2000/svg">
<path fill-rule="evenodd" clip-rule="evenodd" d="M5.31681 1.05974C7.90431 0.687603 10.4026 2.46461 10.8958 5.03826L10.9376 5.29774L10.9385 5.29858L10.9694 5.60913C10.9772 5.71223 10.9831 5.8152 10.9879 5.91633V5.99417C10.9844 6.07496 10.9674 6.16416 10.9192 6.24194C10.8454 6.36053 10.7202 6.41998 10.5685 6.42023C10.4252 6.42023 10.3023 6.36775 10.2219 6.26119C10.1483 6.163 10.1269 6.04125 10.1265 5.93474C10.1265 5.34595 9.98681 4.79066 9.73897 4.25896L9.6268 4.03296C8.89153 2.64723 7.22468 1.74693 5.68763 1.88759L5.53947 1.90433C3.79208 2.14382 2.37908 3.38886 1.98953 4.98804L1.95521 5.14373C1.49348 7.48173 2.99084 9.68563 5.35197 10.0614L5.69684 10.1066C6.50045 10.1893 7.30148 10.1099 8.05649 9.77515L8.17451 9.71823C8.44066 9.5803 8.64209 9.40223 8.78389 9.19088C8.94593 8.94901 9.0378 8.65288 9.05175 8.30361L9.05258 8.19228C9.04161 7.71897 8.83475 7.33677 8.46497 7.03882L8.2825 6.90656L6.21748 5.56142C6.15002 5.51657 6.11096 5.50612 6.08607 5.50533C6.07482 5.50506 6.0597 5.50683 6.04003 5.5137L5.96135 5.55556C5.70777 5.72691 5.44882 5.89267 5.19377 6.05695C4.94149 6.21945 4.69112 6.38111 4.44795 6.54998C4.41313 6.57908 4.38441 6.61534 4.36341 6.65545C4.34223 6.69613 4.32949 6.74122 4.32574 6.78686C4.30472 7.2582 4.31847 7.72505 4.3157 8.20986L4.31737 8.28268C4.31826 8.30943 4.31913 8.34133 4.31821 8.37308C4.31648 8.43173 4.30756 8.51665 4.26213 8.59323L4.26296 8.59406C4.22589 8.65761 4.17185 8.72318 4.11146 8.7757C4.06891 8.81263 4.01026 8.85359 3.94237 8.87615L3.87122 8.89205C3.8003 8.89935 3.73942 8.87065 3.70632 8.85188C3.6679 8.83 3.63192 8.80094 3.60169 8.77152C3.57112 8.74168 3.54096 8.70576 3.51715 8.66856C3.49494 8.6337 3.46978 8.58445 3.4619 8.52877C3.4241 8.27066 3.43522 7.99646 3.43261 7.76454V7.20455C3.37222 7.24295 3.31868 7.27929 3.26436 7.31086C3.19045 7.35355 3.07936 7.4131 2.96218 7.42554C2.89928 7.43207 2.82915 7.42576 2.76045 7.39373C2.69154 7.36146 2.63511 7.30856 2.59137 7.24222C2.50361 7.10869 2.48911 6.96499 2.54868 6.83374C2.60215 6.71646 2.70527 6.6306 2.80314 6.5709C2.88419 6.52143 2.95986 6.4694 3.0417 6.41437C3.12195 6.36043 3.20785 6.30424 3.30035 6.2545C3.36153 6.2215 3.39055 6.18847 3.40666 6.15824C3.41516 6.14213 3.42267 6.12213 3.42758 6.09713L3.43512 6.00338C3.42902 5.26592 3.43069 4.52829 3.43512 3.79105C3.43514 3.68204 3.43882 3.58329 3.45437 3.50059C3.47037 3.41596 3.50185 3.32967 3.57156 3.26203C3.64069 3.19515 3.72757 3.1656 3.81179 3.1507C3.89486 3.13612 3.99465 3.13243 4.10476 3.13229L5.44907 3.13564C5.89598 3.13646 6.34332 3.13556 6.79003 3.12894L7.05789 3.13647C7.32185 3.15545 7.5726 3.21191 7.79784 3.32314C8.10174 3.47338 8.34975 3.71843 8.52189 4.07899L8.57881 4.20874C8.69817 4.51176 8.72654 4.81004 8.66921 5.10104C8.61527 5.37438 8.48644 5.63266 8.30175 5.87782C8.45537 5.98114 8.60382 6.0822 8.7571 6.18C9.52459 6.66407 9.90418 7.3642 9.90973 8.23162L9.90554 8.4074C9.8798 8.91579 9.74098 9.36451 9.48199 9.73497C9.22262 10.1058 8.84932 10.3893 8.37122 10.577C7.92063 10.7509 7.44848 10.8699 6.96916 10.9303L6.96832 10.9294C5.46634 11.1226 4.04641 10.8595 2.83495 9.85299C1.80132 8.99474 1.20396 7.90293 1.04784 6.58764L1.02273 6.32146C0.844182 3.81259 2.60141 1.59399 5.05733 1.10411L5.31681 1.05974ZM4.36425 4.0045L4.34416 4.02124C4.33934 4.02582 4.33446 4.03111 4.33077 4.03547L4.32909 4.03631C4.31807 4.53635 4.31979 5.03742 4.32072 5.58653C4.80684 5.27435 5.25138 4.99283 5.68679 4.6959L5.78473 4.63731C5.88317 4.58614 5.98579 4.55787 6.0936 4.5603L6.19823 4.57202C6.30068 4.59339 6.39674 4.64155 6.48701 4.70427L7.47809 5.35969L7.47892 5.36052L7.54338 5.39652C7.55404 5.40002 7.56095 5.39987 7.56095 5.39987L7.5643 5.39903C7.56611 5.39814 7.56945 5.39604 7.57351 5.39317C7.58324 5.38618 7.59826 5.37251 7.61704 5.34797L7.68735 5.24836C7.83627 5.01698 7.8811 4.78969 7.77691 4.53937C7.64025 4.21152 7.42813 4.0163 7.12903 4.00533C6.21045 3.98136 5.28853 3.99297 4.36425 4.0045Z" fill="currentColor"/>
</svg>
