<svg width="19" height="20" viewBox="0 0 19 20" fill="none" xmlns="http://www.w3.org/2000/svg">
<path d="M7.77344 1.02246C12.8414 0.0104435 17.8574 3.57757 18.5566 8.71191V8.71289C18.6072 9.09211 18.6308 9.47505 18.6484 9.85254C18.6567 10.0242 18.6392 10.2132 18.5459 10.3633C18.4445 10.5263 18.271 10.6162 18.0342 10.6162C17.8099 10.6161 17.6359 10.5355 17.5234 10.3857C17.4166 10.2435 17.3814 10.059 17.3809 9.87793V9.87695C17.3808 8.58748 17.0301 7.38845 16.4258 6.24609C15.0206 3.59752 11.8431 1.87847 8.90137 2.14844L8.61719 2.18066C5.28851 2.6369 2.58999 5.0096 1.84473 8.06934L1.77832 8.36719C0.896913 12.8278 3.75548 17.0387 8.26465 17.7559C10.004 18.0313 11.7622 17.9396 13.4121 17.208C14.0461 16.9267 14.5206 16.5377 14.8438 16.0557C15.167 15.5735 15.344 14.9897 15.3711 14.3105C15.4184 13.1201 14.8655 12.2056 13.8574 11.5518C12.5734 10.7157 11.2781 9.88913 10.001 9.03906C9.86154 8.94642 9.75807 8.90858 9.66602 8.90625C9.5983 8.90456 9.5234 8.92139 9.43164 8.96973L9.33398 9.0293C8.86188 9.34833 8.38091 9.65624 7.90332 9.96387C7.42851 10.2697 6.95626 10.5756 6.49609 10.8955L6.43555 10.9502C6.37833 11.0081 6.3297 11.0741 6.29199 11.1465C6.24177 11.2429 6.21187 11.3488 6.20312 11.457C6.16323 12.3446 6.18879 13.2294 6.18359 14.1299L6.1875 14.2705C6.18916 14.3204 6.19005 14.3749 6.18848 14.4287C6.18545 14.5318 6.17064 14.6546 6.10742 14.7598L6.1084 14.7607C6.04837 14.8636 5.96041 14.9716 5.86133 15.0576C5.78948 15.12 5.70128 15.1799 5.60547 15.2119L5.50684 15.2334C5.42716 15.2416 5.35259 15.2092 5.30078 15.1797C5.24409 15.1474 5.18858 15.1034 5.13965 15.0557C5.09038 15.0076 5.0435 14.9519 5.00684 14.8945C4.97165 14.8394 4.93873 14.7725 4.92871 14.7021C4.89415 14.4681 4.88224 14.2283 4.87793 13.9912L4.87402 13.2949C4.87049 12.8736 4.87321 12.4523 4.87402 11.9443L4.30469 12.3018C4.16533 12.3823 3.98816 12.4763 3.80859 12.4951C3.71519 12.5048 3.61679 12.4947 3.52148 12.4502C3.42594 12.4055 3.34411 12.3304 3.27637 12.2275C3.14048 12.0211 3.12415 11.8145 3.20898 11.6279C3.28831 11.4537 3.44653 11.317 3.61719 11.2129C3.7734 11.1176 3.91927 11.0176 4.07031 10.916C4.21968 10.8156 4.37297 10.7148 4.53809 10.626C4.67606 10.5518 4.75749 10.4692 4.80664 10.377C4.85672 10.2829 4.88129 10.1644 4.87988 10.0059C4.86849 8.62881 4.8716 7.25142 4.87988 5.87402C4.87991 5.67113 4.88617 5.50116 4.91211 5.36328C4.93839 5.22365 4.98745 5.10168 5.08301 5.00879C5.17829 4.91632 5.30252 4.86957 5.44336 4.84473C5.58306 4.82009 5.75524 4.81374 5.96094 4.81348C7.636 4.81348 9.30716 4.83237 10.9785 4.80762C11.6401 4.7976 12.2552 4.8911 12.7842 5.15234C13.3164 5.41522 13.7524 5.84303 14.0586 6.48438C14.3551 7.1054 14.435 7.70614 14.3203 8.28809C14.2154 8.82009 13.9475 9.3253 13.5527 9.81152C13.8938 10.0399 14.2211 10.2645 14.5596 10.4805H14.5586C16.0353 11.4114 16.7134 12.7758 16.6279 14.4893C16.5812 15.4133 16.329 16.2192 15.8662 16.8809C15.4032 17.5427 14.7347 18.0515 13.8682 18.3916L13.8672 18.3926C13.038 18.7125 12.1722 18.929 11.29 19.04L11.291 19.041C8.51915 19.398 5.91754 18.9114 3.69824 17.0674C1.67361 15.3868 0.563692 13.2239 0.373047 10.5889C0.0456162 5.99053 3.26645 1.92144 7.77344 1.02246ZM6.40234 6.10449H6.40039C6.40856 6.10447 6.39987 6.10335 6.37207 6.11914C6.34729 6.13326 6.31775 6.15529 6.29004 6.18164C6.26246 6.20791 6.23941 6.23544 6.22461 6.25879C6.2079 6.28524 6.21061 6.2925 6.21094 6.28223C6.18697 7.32776 6.19319 8.37358 6.19434 9.53906C7.20415 8.88838 8.11954 8.31417 9.0127 7.70508C9.23363 7.55472 9.44954 7.47527 9.67285 7.48047C9.89511 7.48572 10.1038 7.57472 10.3125 7.71973C10.6132 7.92902 10.9221 8.12771 11.2334 8.32812C11.5438 8.52797 11.8572 8.72989 12.1641 8.94434H12.165C12.2959 9.03722 12.3821 9.05626 12.4414 9.04785C12.4997 9.03958 12.5699 8.99916 12.6572 8.88477C13.0586 8.35825 13.2311 7.81799 12.9766 7.20703C12.7066 6.55919 12.2665 6.12746 11.6152 6.10449V6.10352C9.88119 6.05824 8.14255 6.08281 6.40234 6.10449Z" fill="#121212" stroke="#121212" stroke-width="0.3"/>
</svg>
