<svg width="16" height="16" viewBox="0 0 16 16" fill="none" xmlns="http://www.w3.org/2000/svg">
<path d="M13.3333 2.6665H2.66665C1.93131 2.6665 1.33331 3.2645 1.33331 3.99984V11.9998C1.33331 12.7352 1.93131 13.3332 2.66665 13.3332H13.3333C14.0686 13.3332 14.6666 12.7352 14.6666 11.9998V3.99984C14.6666 3.2645 14.0686 2.6665 13.3333 2.6665ZM13.3333 3.99984V4.3405L7.99998 8.48917L2.66665 4.34117V3.99984H13.3333ZM2.66665 11.9998V6.02917L7.59065 9.85917C7.70739 9.95087 7.85153 10.0007 7.99998 10.0007C8.14843 10.0007 8.29257 9.95087 8.40931 9.85917L13.3333 6.02917L13.3346 11.9998H2.66665Z" fill="#A0AEC0"/>
</svg>
