<svg width="16" height="16" viewBox="0 0 16 16" fill="none" xmlns="http://www.w3.org/2000/svg">
<path d="M10.8066 2.77344L13.4733 5.4401V2.77344H10.8066ZM13.4733 10.7734L10.8066 13.4401H13.4733V10.7734ZM5.47331 13.4401L2.80664 10.7734V13.4401H5.47331ZM2.80664 5.4401L5.47331 2.77344H2.80664V5.4401ZM11.44 4.80677C9.61997 2.98677 6.65997 2.98677 4.83997 4.80677C3.01997 6.62677 3.01997 9.58677 4.83997 11.4068C6.65997 13.2268 9.61997 13.2268 11.44 11.4068C13.26 9.58677 13.26 6.63344 11.44 4.80677ZM10.7066 10.6734C9.28664 12.0934 6.99331 12.0934 5.57331 10.6734C4.15331 9.25344 4.15331 6.9601 5.57331 5.5401C6.99331 4.1201 9.28664 4.1201 10.7066 5.5401C12.1266 6.9601 12.1266 9.25344 10.7066 10.6734Z" fill="#44337A"/>
</svg>
