<svg width="12" height="12" viewBox="0 0 12 12"  xmlns="http://www.w3.org/2000/svg">
<path d="M10 4V3C10 2.175 9.325 1.5 8.5 1.5H3.5C2.675 1.5 2 2.175 2 3V4C1.175 4 0.5 4.675 0.5 5.5V8C0.5 8.825 1.175 9.5 2 9.5V10C2 10.275 2.225 10.5 2.5 10.5C2.775 10.5 3 10.275 3 10V9.5H9V10C9 10.275 9.225 10.5 9.5 10.5C9.775 10.5 10 10.275 10 10V9.5C10.825 9.5 11.5 8.825 11.5 8V5.5C11.5 4.675 10.825 4 10 4ZM3 3C3 2.725 3.225 2.5 3.5 2.5H8.5C8.775 2.5 9 2.725 9 3V4.39C8.695 4.665 8.5 5.06 8.5 5.5V6.5H3.5V5.5C3.5 5.06 3.305 4.665 3 4.39V3ZM10.5 8C10.5 8.275 10.275 8.5 10 8.5H2C1.725 8.5 1.5 8.275 1.5 8V5.5C1.5 5.225 1.725 5 2 5C2.275 5 2.5 5.225 2.5 5.5V7.5H9.5V5.5C9.5 5.225 9.725 5 10 5C10.275 5 10.5 5.225 10.5 5.5V8Z" fill="currentColor"/>
</svg>
