<svg width="20" height="20" viewBox="0 0 20 20" fill="none" xmlns="http://www.w3.org/2000/svg">
<path d="M6.24984 12.0835C4.93317 12.0835 3.83067 12.9668 3.469 14.1668H1.6665V15.8335H3.469C3.83067 17.0335 4.93317 17.9168 6.24984 17.9168C7.5665 17.9168 8.669 17.0335 9.03067 15.8335H18.3332V14.1668H9.03067C8.669 12.9668 7.5665 12.0835 6.24984 12.0835ZM6.24984 16.2502C5.56067 16.2502 4.99984 15.6893 4.99984 15.0002C4.99984 14.311 5.56067 13.7502 6.24984 13.7502C6.939 13.7502 7.49984 14.311 7.49984 15.0002C7.49984 15.6893 6.939 16.2502 6.24984 16.2502ZM13.7498 7.0835C12.4332 7.0835 11.3307 7.96683 10.969 9.16683H1.6665V10.8335H10.969C11.3307 12.0335 12.4332 12.9168 13.7498 12.9168C15.0665 12.9168 16.169 12.0335 16.5307 10.8335H18.3332V9.16683H16.5307C16.169 7.96683 15.0665 7.0835 13.7498 7.0835ZM13.7498 11.2502C13.0607 11.2502 12.4998 10.6893 12.4998 10.0002C12.4998 9.311 13.0607 8.75016 13.7498 8.75016C14.439 8.75016 14.9998 9.311 14.9998 10.0002C14.9998 10.6893 14.439 11.2502 13.7498 11.2502Z" fill="#2D3748"/>
<path d="M10.6973 4.16683C10.3357 2.96683 9.23317 2.0835 7.9165 2.0835C6.59984 2.0835 5.49734 2.96683 5.13567 4.16683H1.6665V5.8335H5.13567C5.49734 7.0335 6.59984 7.91683 7.9165 7.91683C9.23317 7.91683 10.3357 7.0335 10.6973 5.8335H18.4373V4.16683H10.6973ZM7.9165 6.25016C7.22734 6.25016 6.6665 5.68933 6.6665 5.00016C6.6665 4.311 7.22734 3.75016 7.9165 3.75016C8.60567 3.75016 9.1665 4.311 9.1665 5.00016C9.1665 5.68933 8.60567 6.25016 7.9165 6.25016Z" fill="#2D3748"/>
</svg>
