<svg width="16" height="17" viewBox="0 0 16 17" fill="none" xmlns="http://www.w3.org/2000/svg">
<path d="M6.1055 4.18267L5.83707 3.57868C5.66155 3.18377 5.57379 2.9863 5.44254 2.83519C5.27805 2.64581 5.06364 2.50647 4.82378 2.43308C4.63239 2.37451 4.4163 2.37451 3.98414 2.37451C3.35194 2.37451 3.03584 2.37451 2.77048 2.49604C2.45791 2.63919 2.17562 2.95003 2.06315 3.27491C1.96767 3.5507 1.99502 3.83413 2.04972 4.40098C2.63194 10.4346 5.93988 13.7426 11.9735 14.3248C12.5404 14.3795 12.8238 14.4068 13.0996 14.3114C13.4245 14.1989 13.7353 13.9166 13.8785 13.604C14 13.3386 14 13.0226 14 12.3904C14 11.9582 14 11.7421 13.9414 11.5507C13.868 11.3108 13.7287 11.0964 13.5393 10.932C13.3882 10.8007 13.1908 10.713 12.7958 10.5374L12.1918 10.269C11.7642 10.0789 11.5503 9.98391 11.333 9.96324C11.125 9.94345 10.9154 9.97264 10.7207 10.0484C10.5173 10.1276 10.3376 10.2774 9.97797 10.577C9.6201 10.8753 9.44117 11.0244 9.2225 11.1043C9.02864 11.1751 8.77237 11.2014 8.56824 11.1712C8.3379 11.1373 8.16157 11.0431 7.80884 10.8546C6.7115 10.2682 6.10635 9.66305 5.51991 8.56565C5.33143 8.21298 5.23719 8.03658 5.20324 7.80631C5.17316 7.60211 5.19938 7.34585 5.2702 7.15205C5.35008 6.93336 5.49921 6.75442 5.79746 6.39651C6.09708 6.03697 6.24689 5.85719 6.3261 5.65379C6.4019 5.45914 6.43108 5.24945 6.4113 5.0415C6.39062 4.82419 6.29558 4.61035 6.1055 4.18267Z" fill="#2D3748"/>
</svg>
