<svg width="80" height="100" viewBox="0 0 80 100" fill="none" xmlns="http://www.w3.org/2000/svg">
<path d="M30.1633 51.1504C27.7478 52.6713 26.3331 53.6279 24.8631 54.4813C22.9929 55.5617 20.8191 56.5458 19.3422 54.3023C17.8654 52.0588 19.1697 50.242 21.3021 48.9414C23.4346 47.6407 25.2841 46.1886 27.3959 45.0531C29.5076 43.9176 30.2185 42.3416 30.1978 40.0293C30.1218 30.8558 30.1425 21.6822 30.1978 12.5018C30.1978 7.09952 30.9362 6.43198 36.4088 6.4251C47.5611 6.4251 58.7203 6.54897 69.8726 6.38381C78.506 6.25305 85.5866 8.82687 89.4858 16.9957C93.2745 24.9305 91.4595 32.1358 85.5452 38.9695C88.1331 40.69 90.6245 42.4104 93.1917 44.0483C102.722 50.0562 107.07 58.8031 106.518 69.876C105.911 81.8918 99.9963 90.6042 88.7542 95.0155C83.3018 97.1195 77.6123 98.5523 71.8118 99.2823C53.5375 101.636 36.4916 98.4221 21.9578 86.3444C8.67069 75.315 1.40145 61.1521 0.150037 43.8556C-1.99623 13.7199 19.1145 -12.9749 48.686 -18.8727C81.9083 -25.5068 114.806 -2.10843 119.389 31.5508C119.72 34.0352 119.872 36.554 119.989 39.0659C120.092 41.2199 119.499 43.1055 116.897 43.1055C114.42 43.1055 113.543 41.385 113.536 39.1828C113.536 30.3947 111.149 22.2397 107.056 14.5044C97.1944 -4.08353 74.5309 -15.9272 53.9792 -13.1194C30.6808 -9.92625 11.882 7.12017 7.5412 28.922C1.55788 59.2022 20.9709 87.824 51.6052 92.6963C63.3372 94.5544 75.2624 93.942 86.4837 88.9664C95.2344 85.085 99.7685 78.1412 100.141 68.7749C100.472 60.4341 96.5664 54.0271 89.5962 49.5057C81.0249 43.9245 72.4053 38.4258 63.8962 32.7621C61.888 31.427 60.3904 31.31 58.3339 32.7001C52.0607 36.9394 45.546 40.8758 39.3349 45.1976C38.6719 45.7461 38.1258 46.4215 37.7288 47.1838C37.3317 47.9462 37.0917 48.7801 37.023 49.6364C36.7539 55.5892 36.9264 61.5627 36.8919 67.5293C36.8919 68.7818 37.1058 70.2821 36.5261 71.2318C35.836 72.4154 34.4558 73.7712 33.2757 73.895C32.4061 73.9845 30.667 72.2847 30.5152 71.2042C30.0666 68.1693 30.1978 65.0105 30.1633 61.955C30.1356 58.6654 30.1633 55.3897 30.1633 51.1504ZM36.9678 38.7631C44.2969 34.0214 50.8944 29.9061 57.3125 25.5292C60.0315 23.678 62.2537 23.8156 64.8486 25.6187C68.8926 28.4333 73.13 30.9452 77.1879 33.7806C79.1271 35.1569 80.528 34.9023 81.8462 33.175C84.648 29.5 85.9869 25.5154 84.1028 20.994C82.2188 16.4726 79.0167 13.2038 74.1375 13.0317C62.5505 12.7289 50.9358 12.8872 39.3349 13.0317C38.5413 13.0317 37.092 14.4081 37.0713 15.1857C36.8988 22.7076 36.9678 30.2364 36.9678 38.7286V38.7631Z" fill="#E2E8F0"/>
</svg>
