<svg width="80" height="80" viewBox="0 0 80 80" fill="none" xmlns="http://www.w3.org/2000/svg">
<path d="M73.3333 63.3327H53.3333V49.9994H44.4C40.6 58.066 32.4 63.3327 23.3333 63.3327C10.4667 63.3327 0 52.866 0 39.9994C0 27.1327 10.4667 16.666 23.3333 16.666C32.4 16.666 40.5667 21.9327 44.4 29.9993H80V49.9994H73.3333V63.3327ZM60 56.666H66.6667V43.3327H73.3333V36.666H39.8L39.0333 34.4327C36.7 27.7993 30.3667 23.3327 23.3333 23.3327C14.1333 23.3327 6.66667 30.7993 6.66667 39.9994C6.66667 49.1994 14.1333 56.666 23.3333 56.666C30.3667 56.666 36.7 52.1994 39.0333 45.566L39.8 43.3327H60V56.666ZM23.3333 49.9994C17.8333 49.9994 13.3333 45.4994 13.3333 39.9994C13.3333 34.4993 17.8333 29.9993 23.3333 29.9993C28.8333 29.9993 33.3333 34.4993 33.3333 39.9994C33.3333 45.4994 28.8333 49.9994 23.3333 49.9994ZM23.3333 36.666C21.5 36.666 20 38.166 20 39.9994C20 41.8327 21.5 43.3327 23.3333 43.3327C25.1667 43.3327 26.6667 41.8327 26.6667 39.9994C26.6667 38.166 25.1667 36.666 23.3333 36.666Z" fill="#553C9A"/>
</svg>
