<svg width="80" height="80" viewBox="0 0 80 80" fill="none" xmlns="http://www.w3.org/2000/svg">
<path d="M39.3336 36.3333C31.7669 34.3667 29.3336 32.3333 29.3336 29.1667C29.3336 25.5333 32.7002 23 38.3336 23C44.2669 23 46.4669 25.8333 46.6669 30H54.0336C53.8002 24.2667 50.3002 19 43.3336 17.3V10H33.3336V17.2C26.8669 18.6 21.6669 22.8 21.6669 29.2333C21.6669 36.9333 28.0336 40.7667 37.3336 43C45.6669 45 47.3336 47.9333 47.3336 51.0333C47.3336 53.3333 45.7002 57 38.3336 57C31.4669 57 28.7669 53.9333 28.4002 50H21.0669C21.4669 57.3 26.9336 61.4 33.3336 62.7667V70H43.3336V62.8333C49.8336 61.6 55.0002 57.8333 55.0002 51C55.0002 41.5333 46.9002 38.3 39.3336 36.3333Z" fill="#553C9A"/>
</svg>
