<svg width="31" height="31" viewBox="0 0 31 31" fill="none" xmlns="http://www.w3.org/2000/svg">
<rect x="0.547852" y="0.5" width="30" height="30" rx="10" fill="currentColor" fill-opacity="0.08"/>
<path d="M9.61413 18.2385C10.413 18.234 11.1813 17.9312 11.7685 17.3896L17.4831 20.6576C17.4103 20.9099 17.3734 21.1711 17.3735 21.4336C17.3677 22.1744 17.6173 22.8946 18.0803 23.473C18.5433 24.0514 19.1914 24.4525 19.9156 24.6089C20.6397 24.7653 21.3957 24.6674 22.0561 24.3317C22.7165 23.996 23.2411 23.4429 23.5415 22.7657C23.8419 22.0885 23.8998 21.3285 23.7054 20.6136C23.511 19.8987 23.0762 19.2726 22.4742 18.8407C21.8723 18.4089 21.1399 18.1976 20.4004 18.2426C19.6609 18.2875 18.9595 18.5859 18.4142 19.0875L12.6996 15.8194C12.7686 15.5945 12.8055 15.3609 12.8092 15.1256L18.4233 11.9123C18.9656 12.4024 19.66 12.6911 20.3898 12.73C21.1197 12.7689 21.8408 12.5556 22.4321 12.126C23.0234 11.6964 23.449 11.0764 23.6376 10.3702C23.8261 9.66405 23.766 8.9145 23.4675 8.24733C23.1689 7.58015 22.65 7.03591 21.9979 6.7059C21.3457 6.37588 20.5999 6.28015 19.8855 6.43477C19.1711 6.58939 18.5316 6.98495 18.0742 7.55511C17.6169 8.12527 17.3695 8.83535 17.3735 9.56626C17.3766 9.82854 17.4134 10.0893 17.4831 10.3422L12.2888 13.309C11.9879 12.8434 11.5709 12.4642 11.079 12.2085C10.5871 11.9528 10.0371 11.8295 9.48307 11.8508C8.92907 11.8721 8.39013 12.0371 7.91924 12.3297C7.44834 12.6223 7.06168 13.0324 6.79728 13.5197C6.53288 14.007 6.39982 14.5547 6.41119 15.109C6.42257 15.6633 6.57798 16.2051 6.86215 16.6812C7.14632 17.1572 7.54947 17.5511 8.03197 17.8242C8.51448 18.0972 9.05973 18.24 9.61413 18.2385ZM20.5686 20.0643C20.8394 20.0643 21.1042 20.1446 21.3293 20.295C21.5545 20.4455 21.73 20.6594 21.8337 20.9096C21.9373 21.1598 21.9644 21.4351 21.9116 21.7007C21.8587 21.9663 21.7283 22.2103 21.5368 22.4018C21.3453 22.5933 21.1013 22.7237 20.8357 22.7766C20.5701 22.8294 20.2948 22.8023 20.0446 22.6987C19.7944 22.595 19.5805 22.4195 19.43 22.1943C19.2796 21.9691 19.1993 21.7044 19.1993 21.4336C19.1993 21.0704 19.3435 20.7221 19.6003 20.4653C19.8571 20.2085 20.2054 20.0643 20.5686 20.0643ZM20.5686 8.19696C20.8394 8.19696 21.1042 8.27726 21.3293 8.42773C21.5545 8.57819 21.73 8.79204 21.8337 9.04225C21.9373 9.29246 21.9644 9.56778 21.9116 9.8334C21.8587 10.099 21.7283 10.343 21.5368 10.5345C21.3453 10.726 21.1013 10.8564 20.8357 10.9093C20.5701 10.9621 20.2948 10.935 20.0446 10.8313C19.7944 10.7277 19.5805 10.5522 19.43 10.327C19.2796 10.1018 19.1993 9.83709 19.1993 9.56626C19.1993 9.2031 19.3435 8.85481 19.6003 8.59802C19.8571 8.34122 20.2054 8.19696 20.5686 8.19696ZM9.61413 13.6742C9.88496 13.6742 10.1497 13.7545 10.3749 13.905C10.6001 14.0554 10.7756 14.2693 10.8792 14.5195C10.9828 14.7697 11.01 15.045 10.9571 15.3106C10.9043 15.5762 10.7739 15.8202 10.5824 16.0117C10.3909 16.2032 10.1469 16.3336 9.88127 16.3865C9.61565 16.4393 9.34033 16.4122 9.09012 16.3086C8.83991 16.2049 8.62606 16.0294 8.4756 15.8042C8.32514 15.5791 8.24483 15.3143 8.24483 15.0435C8.24483 14.6803 8.38909 14.332 8.64589 14.0752C8.90268 13.8184 9.25097 13.6742 9.61413 13.6742Z" fill="#2D3748"/>
</svg>
