<svg width="22" height="23" viewBox="0 0 22 23" fill="none" xmlns="http://www.w3.org/2000/svg">
<path d="M10.9999 2.20801C5.94542 2.20801 1.83325 6.32017 1.83325 11.3747C1.83325 16.4292 5.94542 20.5413 10.9999 20.5413C16.0544 20.5413 20.1666 16.4292 20.1666 11.3747C20.1666 6.32017 16.0544 2.20801 10.9999 2.20801ZM10.9999 18.708C6.9565 18.708 3.66659 15.4181 3.66659 11.3747C3.66659 7.33126 6.9565 4.04134 10.9999 4.04134C15.0433 4.04134 18.3333 7.33126 18.3333 11.3747C18.3333 15.4181 15.0433 18.708 10.9999 18.708Z" fill="#553C9A"/>
<path d="M9.16567 12.8294L7.05825 10.7256L5.76392 12.0236L9.1675 15.4199L15.3147 9.27273L14.0185 7.97656L9.16567 12.8294Z" fill="#553C9A"/>
</svg>
