<svg width="20" height="20" viewBox="0 0 20 20" fill="none" xmlns="http://www.w3.org/2000/svg">
<path d="M4.9987 8.33301C4.08203 8.33301 3.33203 9.08301 3.33203 9.99967C3.33203 10.9163 4.08203 11.6663 4.9987 11.6663C5.91536 11.6663 6.66536 10.9163 6.66536 9.99967C6.66536 9.08301 5.91536 8.33301 4.9987 8.33301ZM14.9987 8.33301C14.082 8.33301 13.332 9.08301 13.332 9.99967C13.332 10.9163 14.082 11.6663 14.9987 11.6663C15.9154 11.6663 16.6654 10.9163 16.6654 9.99967C16.6654 9.08301 15.9154 8.33301 14.9987 8.33301ZM9.9987 8.33301C9.08203 8.33301 8.33203 9.08301 8.33203 9.99967C8.33203 10.9163 9.08203 11.6663 9.9987 11.6663C10.9154 11.6663 11.6654 10.9163 11.6654 9.99967C11.6654 9.08301 10.9154 8.33301 9.9987 8.33301Z" fill="#2D3748"/>
</svg>
