<svg width="40" height="40" viewBox="0 0 40 40" fill="none" xmlns="http://www.w3.org/2000/svg">
<path d="M35.0001 10.8333V23.3333H31.6667V12.5L23.3334 6.66667L15.0001 12.5V15H11.6667V10.8333L23.3334 2.5L35.0001 10.8333ZM25.8334 11.6667H24.1667V13.3333H25.8334V11.6667ZM22.5001 11.6667H20.8334V13.3333H22.5001V11.6667ZM25.8334 15H24.1667V16.6667H25.8334V15ZM22.5001 15H20.8334V16.6667H22.5001V15ZM31.6667 26.6667H28.3334C28.3334 24.6667 27.0834 22.8667 25.2167 22.1667L14.9501 18.3333H1.66675V36.6667H11.6667V34.2667L23.3334 37.5L36.6667 33.3333V31.6667C36.6667 28.9 34.4334 26.6667 31.6667 26.6667ZM5.00008 33.3333V21.6667H8.33341V33.3333H5.00008ZM23.2834 34.0167L11.6667 30.8V21.6667H14.3501L24.0501 25.2833C24.6167 25.5 25.0001 26.05 25.0001 26.6667C25.0001 26.6667 21.6834 26.5833 21.1667 26.4167L17.2001 25.1L16.1501 28.2667L20.1167 29.5833C20.9667 29.8667 21.8501 30.0167 22.7501 30.0167H31.6667C32.3167 30.0167 32.9001 30.4 33.1667 30.95L23.2834 34.0167Z" fill="#E9D8FD"/>
</svg>
