<svg width="16" height="16" viewBox="0 0 16 16" fill="currentColor" xmlns="http://www.w3.org/2000/svg">
<path d="M14.0002 6.66667H4.66683V4.66667C4.66683 3.93133 5.26483 3.33333 6.00016 3.33333C6.7355 3.33333 7.3335 3.93133 7.3335 4.66667H8.66683C8.66683 3.196 7.47083 2 6.00016 2C4.5295 2 3.3335 3.196 3.3335 4.66667V6.66667H2.00016C1.82335 6.66667 1.65378 6.7369 1.52876 6.86193C1.40373 6.98695 1.3335 7.15652 1.3335 7.33333V8.66667C1.3335 10.404 2.4495 11.882 4.00016 12.4333V14.6667H5.3335V12.6667H10.6668V14.6667H12.0002V12.4333C13.5508 11.882 14.6668 10.404 14.6668 8.66667V7.33333C14.6668 7.15652 14.5966 6.98695 14.4716 6.86193C14.3465 6.7369 14.177 6.66667 14.0002 6.66667ZM13.3335 8.66667C13.3335 10.1373 12.1375 11.3333 10.6668 11.3333H5.3335C3.86283 11.3333 2.66683 10.1373 2.66683 8.66667V8H13.3335V8.66667Z" fill="currentColor"/>
</svg>
