<svg width="16" height="16" viewBox="0 0 16 16" fill="currentColor" xmlns="http://www.w3.org/2000/svg">
<path d="M14.1728 7.9655C14.3134 7.92945 14.4381 7.8479 14.5274 7.73358C14.6168 7.61927 14.6658 7.47859 14.6668 7.3335V5.3335C14.6668 5.15721 14.5969 4.98811 14.4725 4.86327C14.348 4.73843 14.1791 4.66803 14.0028 4.6675V4.00016H14.0002C14.0002 2.5295 12.8042 1.3335 11.3335 1.3335H4.66683C3.19616 1.3335 2.00016 2.5295 2.00016 4.00016V4.66683C1.82335 4.66683 1.65378 4.73707 1.52876 4.86209C1.40373 4.98712 1.3335 5.15669 1.3335 5.3335V7.3335C1.3335 7.64083 1.54483 7.88816 1.82816 7.9655C1.50775 8.41215 1.33502 8.94781 1.33416 9.4975L1.33683 12.0022C1.3375 12.4908 1.60616 12.9148 2.00016 13.1462V14.0002C2.00016 14.177 2.0704 14.3465 2.19542 14.4716C2.32045 14.5966 2.49002 14.6668 2.66683 14.6668H3.3335C3.51031 14.6668 3.67988 14.5966 3.8049 14.4716C3.92992 14.3465 4.00016 14.177 4.00016 14.0002V13.3335H12.0002V14.0002C12.0002 14.177 12.0704 14.3465 12.1954 14.4716C12.3204 14.5966 12.49 14.6668 12.6668 14.6668H13.3335C13.5103 14.6668 13.6799 14.5966 13.8049 14.4716C13.9299 14.3465 14.0002 14.177 14.0002 14.0002V13.1508C14.1024 13.0938 14.1967 13.0236 14.2808 12.9422C14.5322 12.6902 14.6708 12.3548 14.6702 11.9988L14.6675 9.49283C14.6649 8.94475 14.492 8.41103 14.1728 7.9655ZM3.3335 12.0002H2.67016L2.6675 9.4955C2.66683 9.1895 2.77483 8.90216 2.96283 8.66683H13.0368C13.2255 8.90216 13.3335 9.18883 13.3342 9.49483L13.3375 12.0002H3.3335ZM7.33616 5.3335V7.3335H3.3335V5.3335H7.33616ZM12.6668 7.3335H8.6695V5.3335H12.6668V7.3335ZM4.66683 2.66683H11.3335C12.0688 2.66683 12.6668 3.26483 12.6668 4.00016H10.0002V3.3335H6.00016V4.00016H3.3335C3.3335 3.26483 3.9315 2.66683 4.66683 2.66683Z" fill="currentColor"/>
<path d="M4.3335 11.3335C4.88578 11.3335 5.3335 10.8858 5.3335 10.3335C5.3335 9.78121 4.88578 9.3335 4.3335 9.3335C3.78121 9.3335 3.3335 9.78121 3.3335 10.3335C3.3335 10.8858 3.78121 11.3335 4.3335 11.3335Z" fill="currentColor"/>
<path d="M11.6665 11.3335C12.2188 11.3335 12.6665 10.8858 12.6665 10.3335C12.6665 9.78121 12.2188 9.3335 11.6665 9.3335C11.1142 9.3335 10.6665 9.78121 10.6665 10.3335C10.6665 10.8858 11.1142 11.3335 11.6665 11.3335Z" fill="currentColor"/>
</svg>
