<svg width="16" height="16" viewBox="0 0 16 16" fill="none" xmlns="http://www.w3.org/2000/svg">
<path d="M13.8479 6.7705L12.9359 4.03384C12.8036 3.63549 12.5491 3.28897 12.2087 3.04351C11.8682 2.79805 11.459 2.66613 11.0393 2.6665H4.96059C4.54084 2.66613 4.13166 2.79805 3.79117 3.04351C3.45069 3.28897 3.19622 3.63549 3.06392 4.03384L2.15192 6.7705C1.90966 6.87216 1.70277 7.04301 1.55715 7.26168C1.41153 7.48035 1.33364 7.73712 1.33325 7.99984V11.3332C1.33325 11.8352 1.61525 12.2678 2.02592 12.4952C2.01725 12.5392 1.99992 12.5792 1.99992 12.6252V13.9998C1.99992 14.1766 2.07016 14.3462 2.19518 14.4712C2.32021 14.5963 2.48977 14.6665 2.66659 14.6665H3.33325C3.51006 14.6665 3.67963 14.5963 3.80466 14.4712C3.92968 14.3462 3.99992 14.1766 3.99992 13.9998V12.6665H11.9999V13.9998C11.9999 14.1766 12.0702 14.3462 12.1952 14.4712C12.3202 14.5963 12.4898 14.6665 12.6666 14.6665H13.3333C13.5101 14.6665 13.6796 14.5963 13.8047 14.4712C13.9297 14.3462 13.9999 14.1766 13.9999 13.9998V12.6252C13.9999 12.5792 13.9826 12.5385 13.9739 12.4952C14.1829 12.3813 14.3574 12.2133 14.4792 12.0089C14.6011 11.8045 14.6658 11.5711 14.6666 11.3332V7.99984C14.6666 7.44717 14.3279 6.9725 13.8479 6.7705ZM2.66659 11.3332V7.99984H13.3333L13.3346 11.3332H2.66659ZM4.96059 3.99984H11.0386C11.3259 3.99984 11.5806 4.1825 11.6713 4.45584L12.4086 6.6665H3.59125L4.32792 4.45584C4.37215 4.32303 4.45706 4.20752 4.57062 4.12568C4.68417 4.04383 4.82061 3.9998 4.96059 3.99984Z" fill="#553C9A"/>
<path d="M4.33325 10.6665C4.88554 10.6665 5.33325 10.2188 5.33325 9.6665C5.33325 9.11422 4.88554 8.6665 4.33325 8.6665C3.78097 8.6665 3.33325 9.11422 3.33325 9.6665C3.33325 10.2188 3.78097 10.6665 4.33325 10.6665Z" fill="#2D3748"/>
<path d="M11.6667 10.6665C12.219 10.6665 12.6667 10.2188 12.6667 9.6665C12.6667 9.11422 12.219 8.6665 11.6667 8.6665C11.1145 8.6665 10.6667 9.11422 10.6667 9.6665C10.6667 10.2188 11.1145 10.6665 11.6667 10.6665Z" fill="#2D3748"/>
</svg>
