<svg width="16" height="16" viewBox="0 0 16 16" fill="currentColor" xmlns="http://www.w3.org/2000/svg">
<path d="M14 2.66683C14 1.9315 13.402 1.3335 12.6667 1.3335H3.33333C2.598 1.3335 2 1.9315 2 2.66683V13.3335C2 14.0688 2.598 14.6668 3.33333 14.6668H12.6667C13.402 14.6668 14 14.0688 14 13.3335V2.66683ZM3.33333 2.66683H12.6667V7.3335H3.33333V2.66683ZM3.33333 13.3335V8.66683H12.6673V13.3335H3.33333Z" fill="currentColor"/>
<path d="M9.3335 4.66667H6.66683V4H5.3335V6H10.6668V4H9.3335V4.66667ZM9.3335 10V10.6667H6.66683V10H5.3335V12H10.6668V10H9.3335Z" fill="currentColor"/>
</svg>
