<svg width="16" height="16" viewBox="0 0 16 16" fill="currentColor" xmlns="http://www.w3.org/2000/svg">
<path d="M13.8482 6.7705L12.9362 4.03384C12.8039 3.63549 12.5494 3.28897 12.2089 3.04351C11.8684 2.79805 11.4592 2.66613 11.0395 2.6665H4.96083C4.54109 2.66613 4.13191 2.79805 3.79142 3.04351C3.45093 3.28897 3.19646 3.63549 3.06416 4.03384L2.15216 6.7705C1.9099 6.87216 1.70301 7.04301 1.55739 7.26168C1.41177 7.48035 1.33389 7.73712 1.3335 7.99984V11.3332C1.3335 11.8352 1.6155 12.2678 2.02616 12.4952C2.0175 12.5392 2.00016 12.5792 2.00016 12.6252V13.9998C2.00016 14.1766 2.0704 14.3462 2.19542 14.4712C2.32045 14.5963 2.49002 14.6665 2.66683 14.6665H3.3335C3.51031 14.6665 3.67988 14.5963 3.8049 14.4712C3.92992 14.3462 4.00016 14.1766 4.00016 13.9998V12.6665H12.0002V13.9998C12.0002 14.1766 12.0704 14.3462 12.1954 14.4712C12.3204 14.5963 12.49 14.6665 12.6668 14.6665H13.3335C13.5103 14.6665 13.6799 14.5963 13.8049 14.4712C13.9299 14.3462 14.0002 14.1766 14.0002 13.9998V12.6252C14.0002 12.5792 13.9828 12.5385 13.9742 12.4952C14.1831 12.3813 14.3576 12.2133 14.4795 12.0089C14.6013 11.8045 14.666 11.5711 14.6668 11.3332V7.99984C14.6668 7.44717 14.3282 6.9725 13.8482 6.7705ZM2.66683 11.3332V7.99984H13.3335L13.3348 11.3332H2.66683ZM4.96083 3.99984H11.0388C11.3262 3.99984 11.5808 4.1825 11.6715 4.45584L12.4088 6.6665H3.5915L4.32816 4.45584C4.3724 4.32303 4.45731 4.20752 4.57086 4.12568C4.68442 4.04383 4.82085 3.9998 4.96083 3.99984Z" fill="currentColor"/>
<path d="M4.3335 10.6665C4.88578 10.6665 5.3335 10.2188 5.3335 9.6665C5.3335 9.11422 4.88578 8.6665 4.3335 8.6665C3.78121 8.6665 3.3335 9.11422 3.3335 9.6665C3.3335 10.2188 3.78121 10.6665 4.3335 10.6665Z" fill="currentColor"/>
<path d="M11.6665 10.6665C12.2188 10.6665 12.6665 10.2188 12.6665 9.6665C12.6665 9.11422 12.2188 8.6665 11.6665 8.6665C11.1142 8.6665 10.6665 9.11422 10.6665 9.6665C10.6665 10.2188 11.1142 10.6665 11.6665 10.6665Z" fill="currentColor"/>
</svg>
