<svg width="16" height="16" viewBox="0 0 16 16" fill="none" xmlns="http://www.w3.org/2000/svg">
<path d="M13.9439 6.37593C13.9791 6.29588 13.9982 6.20967 14.0001 6.12223C14.002 6.03479 13.9866 5.94784 13.9548 5.86636C13.9231 5.78487 13.8755 5.71045 13.815 5.64734C13.7544 5.58424 13.682 5.53369 13.6019 5.4986L4.88525 1.66126C4.22192 1.36926 3.40525 1.69526 3.12192 2.35593L1.64859 5.79193C1.50998 6.11695 1.50598 6.48368 1.63746 6.81164C1.76895 7.13961 2.02518 7.40201 2.34992 7.54126L6.37525 9.2666L5.54859 11.3333H2.66659V9.33326H1.33325V14.6666H2.66659V12.6666H5.54859C6.09725 12.6666 6.58325 12.3373 6.78592 11.8279L7.60059 9.79193L11.0706 11.2786C11.2322 11.3479 11.4146 11.3506 11.5782 11.2861C11.7418 11.2215 11.8732 11.0949 11.9439 10.9339L12.1519 10.4606L13.2859 10.9139L14.6193 7.5806L13.5953 7.17193L13.9439 6.37593ZM10.9879 9.79326L2.87525 6.3166L4.34725 2.88193L12.4553 6.45126L10.9879 9.79326Z" fill="#553C9A"/>
</svg>
