<svg width="16" height="16" viewBox="0 0 16 16" fill="currentColor" xmlns="http://www.w3.org/2000/svg">
<path d="M13.9442 6.37593C13.9794 6.29588 13.9985 6.20967 14.0003 6.12223C14.0022 6.03479 13.9868 5.94784 13.9551 5.86636C13.9233 5.78487 13.8758 5.71045 13.8152 5.64734C13.7547 5.58424 13.6823 5.53369 13.6022 5.4986L4.8855 1.66126C4.22216 1.36926 3.4055 1.69526 3.12216 2.35593L1.64883 5.79193C1.51022 6.11695 1.50622 6.48368 1.63771 6.81164C1.76919 7.13961 2.02542 7.40201 2.35016 7.54126L6.3755 9.2666L5.54883 11.3333H2.66683V9.33326H1.3335V14.6666H2.66683V12.6666H5.54883C6.0975 12.6666 6.5835 12.3373 6.78616 11.8279L7.60083 9.79193L11.0708 11.2786C11.2324 11.3479 11.4149 11.3506 11.5785 11.2861C11.742 11.2215 11.8735 11.0949 11.9442 10.9339L12.1522 10.4606L13.2862 10.9139L14.6195 7.5806L13.5955 7.17193L13.9442 6.37593ZM10.9882 9.79326L2.8755 6.3166L4.3475 2.88193L12.4555 6.45126L10.9882 9.79326Z" fill="currentColor"/>
</svg>
