<svg width="16" height="16" viewBox="0 0 16 16" fill="none" xmlns="http://www.w3.org/2000/svg">
<path d="M13.9965 4.60015C13.9855 4.48812 13.9461 4.38072 13.8822 4.28803C13.8183 4.19533 13.732 4.12037 13.6312 4.07015L8.29788 1.40349C8.20526 1.35714 8.10312 1.33301 7.99955 1.33301C7.89598 1.33301 7.79383 1.35714 7.70121 1.40349L2.36788 4.07015C2.2674 4.12066 2.18129 4.19571 2.11754 4.28836C2.05379 4.38101 2.01447 4.48825 2.00321 4.60015C1.99588 4.67149 1.36255 11.7782 7.72921 14.6095C7.81428 14.6479 7.90655 14.6677 7.99988 14.6677C8.09321 14.6677 8.18548 14.6479 8.27055 14.6095C14.6372 11.7782 14.0039 4.67215 13.9965 4.60015ZM7.99988 13.2648C3.48721 11.0835 3.27388 6.42815 3.31055 5.09015L7.99988 2.74549L12.6859 5.08882C12.7105 6.41482 12.4672 11.1008 7.99988 13.2648Z" fill="#553C9A"/>
<path d="M7.33339 8.39081L5.80473 6.86214L4.86206 7.80481L7.33339 10.2761L11.1381 6.47148L10.1954 5.52881L7.33339 8.39081Z" fill="#2D3748"/>
</svg>
