<svg width="16" height="16" viewBox="0 0 16 16" fill="currentColor" xmlns="http://www.w3.org/2000/svg">
<path d="M8.66684 7.03416V6.58216C9.23898 6.43385 9.74573 6.09989 10.1077 5.63262C10.4696 5.16536 10.6663 4.59121 10.6668 4.00016C10.6668 2.5295 9.47084 1.3335 8.00018 1.3335C6.52951 1.3335 5.33351 2.5295 5.33351 4.00016H6.66684C6.66684 3.26483 7.26484 2.66683 8.00018 2.66683C8.73551 2.66683 9.33351 3.26483 9.33351 4.00016C9.33351 4.7355 8.73551 5.3335 8.00018 5.3335C7.82337 5.3335 7.6538 5.40373 7.52877 5.52876C7.40375 5.65378 7.33351 5.82335 7.33351 6.00016V7.03416L1.55684 12.1688C1.45623 12.2588 1.38529 12.3773 1.35338 12.5084C1.32147 12.6396 1.3301 12.7774 1.37813 12.9036C1.42616 13.0297 1.51132 13.1384 1.62238 13.2151C1.73344 13.2919 1.86517 13.3332 2.00018 13.3335H14.0002C14.1353 13.3332 14.2671 13.2919 14.3782 13.215C14.4893 13.1382 14.5745 13.0294 14.6225 12.9031C14.6704 12.7768 14.679 12.639 14.6469 12.5077C14.6148 12.3765 14.5437 12.2581 14.4428 12.1682L8.66684 7.03416ZM3.75351 12.0002L8.00018 8.2255L12.2468 12.0002H3.75351Z" fill="currentColor"/>
</svg>
