<svg width="16" height="16" viewBox="0 0 16 16" fill="currentColor" xmlns="http://www.w3.org/2000/svg">
<path d="M6.9235 14.5252C7.0032 14.5876 7.09611 14.631 7.19512 14.652C7.29414 14.6731 7.39665 14.6712 7.49483 14.6466L12.8282 13.3132C12.9725 13.2774 13.1007 13.1942 13.1923 13.077C13.2839 12.9598 13.3336 12.8153 13.3335 12.6666V3.33325C13.3335 3.18454 13.2837 3.04011 13.1921 2.92294C13.1006 2.80576 12.9725 2.72257 12.8282 2.68658L7.49483 1.35325C7.39661 1.32915 7.29419 1.32764 7.1953 1.34884C7.09641 1.37005 7.00362 1.41341 6.92391 1.47566C6.8442 1.53791 6.77965 1.61744 6.73512 1.70824C6.69059 1.79905 6.66724 1.89878 6.66683 1.99991V2.66658H4.00016C3.82335 2.66658 3.65378 2.73682 3.52876 2.86184C3.40373 2.98687 3.3335 3.15644 3.3335 3.33325V12.6666C3.3335 12.8434 3.40373 13.013 3.52876 13.138C3.65378 13.263 3.82335 13.3332 4.00016 13.3332H6.66683V13.9999C6.66683 14.2052 6.7615 14.3992 6.9235 14.5252ZM8.00016 2.85391L12.0002 3.85391V12.1459L8.00016 13.1459V2.85391ZM4.66683 11.9999V3.99991H6.66683V11.9999H4.66683Z" fill="currentColor"/>
<path d="M9.4945 8.77252C9.79184 8.69785 9.99984 8.43119 9.99984 8.12519V7.87385C9.99975 7.69704 9.92943 7.52751 9.80434 7.40255C9.67925 7.27758 9.50965 7.20743 9.33284 7.20752C9.15603 7.20761 8.98649 7.27793 8.86153 7.40302C8.73657 7.5281 8.66642 7.69771 8.6665 7.87452V8.12585C8.66653 8.22712 8.68963 8.32705 8.73404 8.41805C8.77845 8.50906 8.84301 8.58875 8.92282 8.65108C9.00263 8.71341 9.09559 8.75674 9.19465 8.77779C9.2937 8.79883 9.39625 8.79703 9.4945 8.77252Z" fill="currentColor"/>
</svg>
