<svg width="16" height="16" viewBox="0 0 16 16" fill="currentColor" xmlns="http://www.w3.org/2000/svg">
<path d="M4.00016 3.3335V12.6668H6.00016V8.66683H10.0002V12.6668H12.0002V3.3335H10.0002V7.3335H6.00016V3.3335H4.00016ZM2.00016 10.0002C2.00016 10.177 2.0704 10.3465 2.19542 10.4716C2.32045 10.5966 2.49002 10.6668 2.66683 10.6668H3.3335V5.3335H2.66683C2.49002 5.3335 2.32045 5.40373 2.19542 5.52876C2.0704 5.65378 2.00016 5.82335 2.00016 6.00016V7.3335H1.3335V8.66683H2.00016V10.0002ZM14.0002 6.00016C14.0002 5.82335 13.9299 5.65378 13.8049 5.52876C13.6799 5.40373 13.5103 5.3335 13.3335 5.3335H12.6668V10.6668H13.3335C13.5103 10.6668 13.6799 10.5966 13.8049 10.4716C13.9299 10.3465 14.0002 10.177 14.0002 10.0002V8.66683H14.6668V7.3335H14.0002V6.00016Z" fill="currentColor"/>
</svg>
