<svg width="16" height="16" viewBox="0 0 16 16" fill="none" xmlns="http://www.w3.org/2000/svg">
<path d="M4.66659 11.3332C5.43456 11.3321 6.17869 11.0663 6.77351 10.5806C7.36834 10.0948 7.77747 9.41879 7.93192 8.6665H9.33325V9.99984H10.6666V8.6665H11.9999V10.6665H13.3333V8.6665H13.9999V7.33317H7.93192C7.77747 6.58089 7.36834 5.90487 6.77351 5.4191C6.17869 4.93334 5.43456 4.66753 4.66659 4.6665C2.82859 4.6665 1.33325 6.16184 1.33325 7.99984C1.33325 9.83784 2.82859 11.3332 4.66659 11.3332ZM4.66659 5.99984C5.76925 5.99984 6.66659 6.89717 6.66659 7.99984C6.66659 9.1025 5.76925 9.99984 4.66659 9.99984C3.56392 9.99984 2.66659 9.1025 2.66659 7.99984C2.66659 6.89717 3.56392 5.99984 4.66659 5.99984Z" fill="#553C9A"/>
</svg>
