<svg width="16" height="16" viewBox="0 0 16 16" fill="currentColor" xmlns="http://www.w3.org/2000/svg">
<path d="M4.66683 11.3332C5.4348 11.3321 6.17893 11.0663 6.77376 10.5806C7.36858 10.0948 7.77771 9.41879 7.93216 8.6665H9.3335V9.99984H10.6668V8.6665H12.0002V10.6665H13.3335V8.6665H14.0002V7.33317H7.93216C7.77771 6.58089 7.36858 5.90487 6.77376 5.4191C6.17893 4.93334 5.4348 4.66753 4.66683 4.6665C2.82883 4.6665 1.3335 6.16184 1.3335 7.99984C1.3335 9.83784 2.82883 11.3332 4.66683 11.3332ZM4.66683 5.99984C5.7695 5.99984 6.66683 6.89717 6.66683 7.99984C6.66683 9.1025 5.7695 9.99984 4.66683 9.99984C3.56416 9.99984 2.66683 9.1025 2.66683 7.99984C2.66683 6.89717 3.56416 5.99984 4.66683 5.99984Z" fill="currentColor"/>
</svg>
