<svg width="16" height="16" viewBox="0 0 16 16" fill="currentColor" xmlns="http://www.w3.org/2000/svg">
<path d="M2.00016 13.3335H14.0002C14.1175 13.3335 14.2327 13.3026 14.3342 13.2439C14.4358 13.1851 14.52 13.1006 14.5784 12.9989C14.6369 12.8972 14.6674 12.7819 14.667 12.6646C14.6666 12.5473 14.6353 12.4321 14.5762 12.3308L9.9095 4.33083C9.67016 3.92083 8.99683 3.92216 8.75683 4.33083L6.5775 8.06683L5.8975 6.97883C5.83762 6.8833 5.75446 6.80455 5.6558 6.74997C5.55715 6.6954 5.44624 6.66679 5.3335 6.66683H5.33283C5.21987 6.66694 5.1088 6.69575 5.01003 6.75056C4.91126 6.80537 4.82803 6.88438 4.76816 6.98016L1.43483 12.3135C1.37176 12.4144 1.33685 12.5304 1.33373 12.6493C1.3306 12.7683 1.35938 12.8859 1.41707 12.99C1.47476 13.0941 1.55926 13.1808 1.66179 13.2412C1.76433 13.3016 1.88116 13.3335 2.00016 13.3335ZM9.3335 5.99016L12.8395 12.0002H9.03683L7.3795 9.34216L9.3335 5.99016ZM5.33416 8.59016L7.46483 12.0002H3.2035L5.33416 8.59016ZM4.00016 5.3335C5.10283 5.3335 6.00016 4.43616 6.00016 3.3335C6.00016 2.23083 5.10283 1.3335 4.00016 1.3335C2.8975 1.3335 2.00016 2.23083 2.00016 3.3335C2.00016 4.43616 2.8975 5.3335 4.00016 5.3335ZM4.00016 2.66683C4.17698 2.66683 4.34654 2.73707 4.47157 2.86209C4.59659 2.98712 4.66683 3.15669 4.66683 3.3335C4.66683 3.51031 4.59659 3.67988 4.47157 3.8049C4.34654 3.92992 4.17698 4.00016 4.00016 4.00016C3.82335 4.00016 3.65378 3.92992 3.52876 3.8049C3.40374 3.67988 3.3335 3.51031 3.3335 3.3335C3.3335 3.15669 3.40374 2.98712 3.52876 2.86209C3.65378 2.73707 3.82335 2.66683 4.00016 2.66683Z" fill="currentColor"/>
</svg>
