<svg width="16" height="16" viewBox="0 0 16 16" fill="none" xmlns="http://www.w3.org/2000/svg">
<path d="M1.99992 13.3335H13.9999C14.1172 13.3335 14.2325 13.3026 14.334 13.2439C14.4355 13.1851 14.5198 13.1006 14.5782 12.9989C14.6366 12.8972 14.6672 12.7819 14.6668 12.6646C14.6664 12.5473 14.635 12.4321 14.5759 12.3308L9.90925 4.33083C9.66992 3.92083 8.99659 3.92216 8.75659 4.33083L6.57725 8.06683L5.89725 6.97883C5.83738 6.8833 5.75421 6.80455 5.65556 6.74997C5.5569 6.6954 5.446 6.66679 5.33325 6.66683H5.33259C5.21963 6.66694 5.10855 6.69575 5.00978 6.75056C4.91101 6.80537 4.82779 6.88438 4.76792 6.98016L1.43459 12.3135C1.37152 12.4144 1.33661 12.5304 1.33348 12.6493C1.33036 12.7683 1.35913 12.8859 1.41682 12.99C1.47451 13.0941 1.55901 13.1808 1.66155 13.2412C1.76408 13.3016 1.88092 13.3335 1.99992 13.3335ZM9.33325 5.99016L12.8393 12.0002H9.03659L7.37925 9.34216L9.33325 5.99016ZM5.33392 8.59016L7.46459 12.0002H3.20325L5.33392 8.59016ZM3.99992 5.3335C5.10259 5.3335 5.99992 4.43616 5.99992 3.3335C5.99992 2.23083 5.10259 1.3335 3.99992 1.3335C2.89725 1.3335 1.99992 2.23083 1.99992 3.3335C1.99992 4.43616 2.89725 5.3335 3.99992 5.3335ZM3.99992 2.66683C4.17673 2.66683 4.3463 2.73707 4.47132 2.86209C4.59635 2.98712 4.66659 3.15669 4.66659 3.3335C4.66659 3.51031 4.59635 3.67988 4.47132 3.8049C4.3463 3.92992 4.17673 4.00016 3.99992 4.00016C3.82311 4.00016 3.65354 3.92992 3.52852 3.8049C3.40349 3.67988 3.33325 3.51031 3.33325 3.3335C3.33325 3.15669 3.40349 2.98712 3.52852 2.86209C3.65354 2.73707 3.82311 2.66683 3.99992 2.66683Z" fill="#553C9A"/>
</svg>
