<svg width="16" height="16" viewBox="0 0 16 16" fill="none" xmlns="http://www.w3.org/2000/svg">
<path d="M8.00008 1.3335C6.16208 1.3335 4.66675 2.82883 4.66675 4.66683V6.00016H4.00008C3.26475 6.00016 2.66675 6.59816 2.66675 7.3335V13.3335C2.66675 14.0688 3.26475 14.6668 4.00008 14.6668H12.0001C12.7354 14.6668 13.3334 14.0688 13.3334 13.3335V7.3335C13.3334 6.59816 12.7354 6.00016 12.0001 6.00016H11.3334V4.66683C11.3334 2.82883 9.83808 1.3335 8.00008 1.3335ZM6.00008 4.66683C6.00008 3.56416 6.89741 2.66683 8.00008 2.66683C9.10275 2.66683 10.0001 3.56416 10.0001 4.66683V6.00016H6.00008V4.66683ZM12.0014 13.3335H8.66675V11.8148C9.06341 11.5835 9.33341 11.1582 9.33341 10.6668C9.33341 9.9315 8.73541 9.3335 8.00008 9.3335C7.26475 9.3335 6.66675 9.9315 6.66675 10.6668C6.66675 11.1575 6.93675 11.5835 7.33341 11.8148V13.3335H4.00008V7.3335H12.0001L12.0014 13.3335Z" fill="#553C9A"/>
</svg>
