<svg width="16" height="16" viewBox="0 0 16 16" fill="currentColor" xmlns="http://www.w3.org/2000/svg">
<path d="M10.6668 8V4C10.6668 2.522 9.47683 1.31934 8.01416 1.31934C7.96724 1.31962 7.9205 1.32521 7.87483 1.336C7.19033 1.36919 6.54478 1.66424 6.07175 2.1601C5.59872 2.65597 5.3344 3.3147 5.3335 4V8C5.3335 9.47067 6.5295 10.6667 8.00016 10.6667C9.47083 10.6667 10.6668 9.47067 10.6668 8ZM6.66683 8V4C6.66683 3.26467 7.26483 2.66667 8.00016 2.66667C8.03662 2.66668 8.07299 2.66333 8.10883 2.65667C8.79216 2.70667 9.3335 3.29 9.3335 4V8C9.3335 8.73534 8.7355 9.33334 8.00016 9.33334C7.26483 9.33334 6.66683 8.73534 6.66683 8Z" fill="currentColor"/>
<path d="M3.99984 8H2.6665C2.6665 10.7147 4.70717 12.9573 7.33317 13.2873V14.6667H8.6665V13.2873C11.2925 12.9573 13.3332 10.7153 13.3332 8H11.9998C11.9998 10.206 10.2058 12 7.99984 12C5.79384 12 3.99984 10.206 3.99984 8Z" fill="currentColor"/>
</svg>
