<svg width="16" height="16" viewBox="0 0 16 16" fill="none" xmlns="http://www.w3.org/2000/svg">
<path d="M13.9967 4.6019C13.986 4.48968 13.9469 4.38203 13.8831 4.28908C13.8193 4.19614 13.7329 4.12094 13.632 4.07057L8.31669 1.4039C8.22422 1.3572 8.12211 1.33275 8.01852 1.33252C7.91492 1.33229 7.8127 1.35628 7.72002 1.40257L2.36869 4.06924C2.17069 4.16924 2.03402 4.36057 2.00602 4.58057C1.99736 4.64524 1.24269 11.0746 7.70002 14.5859C7.79929 14.64 7.91074 14.6679 8.0238 14.6669C8.13687 14.6658 8.24778 14.6359 8.34602 14.5799C14.5507 11.0739 14.022 4.86457 13.9967 4.6019ZM8.01202 13.2312C3.43869 10.5579 3.25202 6.3299 3.30336 5.09457L8.01736 2.7459L12.6827 5.08657C12.686 6.33324 12.362 10.5819 8.01202 13.2312Z" fill="#553C9A"/>
</svg>
