<svg width="16" height="16" viewBox="0 0 16 16" fill="currentColor" xmlns="http://www.w3.org/2000/svg">
<path d="M13.8582 6.01527C13.7748 6.03327 12.6562 6.29393 11.2228 7.19793C11.0075 6.15327 10.3702 4.19727 8.48416 2.20793L8.00016 1.69727L7.51616 2.2086C5.6235 4.20527 4.98883 6.1666 4.7755 7.21793C3.33683 6.2986 2.22683 6.0346 2.1455 6.01593L1.3335 5.8346V6.6666C1.3335 11.5266 3.95016 14.6666 8.00016 14.6666C11.9875 14.6666 14.6668 11.4519 14.6668 6.6666V5.8386L13.8582 6.01527ZM5.9995 8.02527C6.00083 8.00327 6.10083 5.9586 8.00016 3.6706C9.87616 5.93727 9.9995 7.99993 10.0002 7.99993V8.08327C9.25254 8.70455 8.57919 9.41011 7.9935 10.1859C7.40615 9.42381 6.73754 8.72793 5.9995 8.1106V8.02527ZM8.00016 13.3333C4.45616 13.3333 2.9675 10.5359 2.70883 7.62393C3.81216 8.1026 5.78616 9.24127 7.44683 11.7059L8.0075 12.5386L8.5575 11.6986C10.1748 9.2266 12.1742 8.09127 13.2882 7.61727C13.0228 10.4359 11.5362 13.3333 8.00016 13.3333Z" fill="currentColor"/>
</svg>
