<svg width="16" height="16" viewBox="0 0 16 16" fill="none" xmlns="http://www.w3.org/2000/svg">
<path d="M12.6687 5.33584C13.4058 5.33584 14.0033 4.73829 14.0033 4.00117C14.0033 3.26405 13.4058 2.6665 12.6687 2.6665C11.9315 2.6665 11.334 3.26405 11.334 4.00117C11.334 4.73829 11.9315 5.33584 12.6687 5.33584Z" fill="#553C9A"/>
<path d="M12.5833 8.81288C12.2053 9.11488 11.9313 9.33355 11.3313 9.33355C10.7319 9.33355 10.4726 9.12622 10.0806 8.81288C9.62725 8.45088 9.06392 8.00022 7.99592 8.00022C6.92859 8.00022 6.36592 8.45088 5.91325 8.81288C5.52125 9.12622 5.26325 9.33355 4.66325 9.33355C4.06459 9.33355 3.80592 9.12622 3.41459 8.81355C2.96192 8.45089 2.39992 8.00022 1.33325 8.00022V9.33355C1.93125 9.33355 2.18992 9.54088 2.58125 9.85355C3.03392 10.2162 3.59659 10.6669 4.66325 10.6669C5.72992 10.6669 6.29392 10.2162 6.74659 9.85355C7.13792 9.54022 7.39725 9.33355 7.99592 9.33355C8.59592 9.33355 8.86992 9.55222 9.24792 9.85422C9.70059 10.2162 10.2639 10.6669 11.3313 10.6669C12.3993 10.6669 12.9626 10.2162 13.4159 9.85422C13.8079 9.54088 14.0673 9.33355 14.6666 9.33355V8.00022C13.5993 8.00022 13.0359 8.45088 12.5833 8.81288ZM11.3313 12.6669C10.7319 12.6669 10.4726 12.4596 10.0806 12.1462C9.62725 11.7842 9.06392 11.3336 7.99592 11.3336C6.92859 11.3336 6.36592 11.7842 5.91325 12.1462C5.52125 12.4596 5.26325 12.6669 4.66325 12.6669C4.06459 12.6669 3.80592 12.4596 3.41459 12.1469C2.96192 11.7842 2.39992 11.3336 1.33325 11.3336V12.6669C1.93125 12.6669 2.18992 12.8742 2.58125 13.1869C3.03392 13.5496 3.59659 14.0002 4.66325 14.0002C5.72992 14.0002 6.29392 13.5496 6.74659 13.1869C7.13792 12.8736 7.39725 12.6669 7.99592 12.6669C8.59592 12.6669 8.86992 12.8856 9.24792 13.1876C9.70059 13.5496 10.2639 14.0002 11.3313 14.0002C12.3993 14.0002 12.9626 13.5496 13.4159 13.1876C13.8079 12.8742 14.0673 12.6669 14.6666 12.6669V11.3336C13.5993 11.3336 13.0359 11.7842 12.5833 12.1462C12.2053 12.4482 11.9313 12.6669 11.3313 12.6669ZM7.33325 3.61289L8.73592 5.01555L7.36459 6.72889C7.55525 6.69155 7.76192 6.66688 7.99592 6.66688C9.06392 6.66688 9.62725 7.11755 10.0806 7.47955C10.4726 7.79288 10.7319 8.00022 11.3313 8.00022C11.9313 8.00022 12.2053 7.78155 12.5833 7.47955C12.6713 7.40955 12.7659 7.33488 12.8653 7.26222L11.4679 5.86889L11.4713 5.86555L7.80459 2.19889C7.74273 2.13692 7.66926 2.08776 7.58838 2.05422C7.5075 2.02068 7.42081 2.00342 7.33325 2.00342C7.2457 2.00342 7.159 2.02068 7.07812 2.05422C6.99725 2.08776 6.92378 2.13692 6.86192 2.19889L4.19525 4.86555L5.13792 5.80822L7.33325 3.61289Z" fill="#553C9A"/>
</svg>
