<svg width="16" height="16" viewBox="0 0 16 16" fill="currentColor" xmlns="http://www.w3.org/2000/svg">
<path d="M12.6687 5.33584C13.4058 5.33584 14.0033 4.73829 14.0033 4.00117C14.0033 3.26405 13.4058 2.6665 12.6687 2.6665C11.9315 2.6665 11.334 3.26405 11.334 4.00117C11.334 4.73829 11.9315 5.33584 12.6687 5.33584Z" fill="currentColor"/>
<path d="M12.5835 8.81288C12.2055 9.11488 11.9315 9.33355 11.3315 9.33355C10.7322 9.33355 10.4728 9.12622 10.0808 8.81288C9.6275 8.45088 9.06416 8.00022 7.99616 8.00022C6.92883 8.00022 6.36616 8.45088 5.9135 8.81288C5.5215 9.12622 5.2635 9.33355 4.6635 9.33355C4.06483 9.33355 3.80616 9.12622 3.41483 8.81355C2.96216 8.45089 2.40016 8.00022 1.3335 8.00022V9.33355C1.9315 9.33355 2.19016 9.54088 2.5815 9.85355C3.03416 10.2162 3.59683 10.6669 4.6635 10.6669C5.73016 10.6669 6.29416 10.2162 6.74683 9.85355C7.13816 9.54022 7.3975 9.33355 7.99616 9.33355C8.59616 9.33355 8.87016 9.55222 9.24816 9.85422C9.70083 10.2162 10.2642 10.6669 11.3315 10.6669C12.3995 10.6669 12.9628 10.2162 13.4162 9.85422C13.8082 9.54088 14.0675 9.33355 14.6668 9.33355V8.00022C13.5995 8.00022 13.0362 8.45088 12.5835 8.81288ZM11.3315 12.6669C10.7322 12.6669 10.4728 12.4596 10.0808 12.1462C9.6275 11.7842 9.06416 11.3336 7.99616 11.3336C6.92883 11.3336 6.36616 11.7842 5.9135 12.1462C5.5215 12.4596 5.2635 12.6669 4.6635 12.6669C4.06483 12.6669 3.80616 12.4596 3.41483 12.1469C2.96216 11.7842 2.40016 11.3336 1.3335 11.3336V12.6669C1.9315 12.6669 2.19016 12.8742 2.5815 13.1869C3.03416 13.5496 3.59683 14.0002 4.6635 14.0002C5.73016 14.0002 6.29416 13.5496 6.74683 13.1869C7.13816 12.8736 7.3975 12.6669 7.99616 12.6669C8.59616 12.6669 8.87016 12.8856 9.24816 13.1876C9.70083 13.5496 10.2642 14.0002 11.3315 14.0002C12.3995 14.0002 12.9628 13.5496 13.4162 13.1876C13.8082 12.8742 14.0675 12.6669 14.6668 12.6669V11.3336C13.5995 11.3336 13.0362 11.7842 12.5835 12.1462C12.2055 12.4482 11.9315 12.6669 11.3315 12.6669ZM7.3335 3.61289L8.73616 5.01555L7.36483 6.72889C7.5555 6.69155 7.76216 6.66688 7.99616 6.66688C9.06416 6.66688 9.6275 7.11755 10.0808 7.47955C10.4728 7.79288 10.7322 8.00022 11.3315 8.00022C11.9315 8.00022 12.2055 7.78155 12.5835 7.47955C12.6715 7.40955 12.7662 7.33488 12.8655 7.26222L11.4682 5.86889L11.4715 5.86555L7.80483 2.19889C7.74297 2.13692 7.6695 2.08776 7.58862 2.05422C7.50775 2.02068 7.42105 2.00342 7.3335 2.00342C7.24594 2.00342 7.15924 2.02068 7.07837 2.05422C6.99749 2.08776 6.92402 2.13692 6.86216 2.19889L4.1955 4.86555L5.13816 5.80822L7.3335 3.61289Z" fill="currentColor"/>
</svg>
