<svg width="16" height="16" viewBox="0 0 16 16" fill="currentColor" xmlns="http://www.w3.org/2000/svg">
<path d="M5.3335 7.99999C6.8535 7.99999 8.00016 6.85332 8.00016 5.33332C8.00016 3.81332 6.8535 2.66666 5.3335 2.66666C3.8135 2.66666 2.66683 3.81332 2.66683 5.33332C2.66683 6.85332 3.8135 7.99999 5.3335 7.99999ZM5.3335 3.99999C6.11883 3.99999 6.66683 4.54799 6.66683 5.33332C6.66683 6.11866 6.11883 6.66666 5.3335 6.66666C4.54816 6.66666 4.00016 6.11866 4.00016 5.33332C4.00016 4.54799 4.54816 3.99999 5.3335 3.99999ZM6.00016 8.66666H4.66683C2.82883 8.66666 1.3335 10.162 1.3335 12V12.6667H2.66683V12C2.66683 10.8973 3.56416 9.99999 4.66683 9.99999H6.00016C7.10283 9.99999 8.00016 10.8973 8.00016 12V12.6667H9.3335V12C9.3335 10.162 7.83816 8.66666 6.00016 8.66666ZM12.2428 1.75732L11.3002 2.69999C12.1808 3.58199 12.6668 4.75399 12.6668 5.99999C12.6668 7.24599 12.1808 8.41799 11.3002 9.29999L12.2428 10.2427C13.3762 9.10866 14.0002 7.60199 14.0002 5.99999C14.0002 4.39799 13.3762 2.89132 12.2428 1.75732Z" fill="currentColor"/>
<path d="M10.3567 3.64258L9.41406 4.58658C9.79206 4.96324 10.0001 5.46524 10.0001 5.99991C10.0001 6.53458 9.79206 7.03658 9.41406 7.41324L10.3567 8.35724C10.9861 7.72791 11.3334 6.89124 11.3334 5.99991C11.3334 5.10858 10.9861 4.27191 10.3567 3.64258Z" fill="currentColor"/>
</svg>
