<svg width="16" height="16" viewBox="0 0 16 16" fill="currentColor" xmlns="http://www.w3.org/2000/svg">
<path d="M3.9975 6.00016C4.9395 6.00016 5.4375 5.50216 5.80083 5.13816C6.1275 4.8115 6.28816 4.66683 6.66216 4.66683C7.03616 4.66683 7.19683 4.8115 7.5235 5.13816C7.88683 5.50216 8.38483 6.00016 9.3275 6.00016C10.2708 6.00016 10.7695 5.50216 11.1342 5.13816C11.4615 4.8115 11.6222 4.66683 11.9975 4.66683C12.3728 4.66683 12.5335 4.8115 12.8608 5.13816C13.2248 5.50216 13.7235 6.00016 14.6668 6.00016V4.66683C14.2915 4.66683 14.1308 4.52216 13.8035 4.1955C13.4395 3.8315 12.9408 3.3335 11.9975 3.3335C11.0542 3.3335 10.5562 3.8315 10.1915 4.19483C9.86416 4.52216 9.70416 4.66683 9.3275 4.66683C8.95283 4.66683 8.79283 4.52216 8.46616 4.1955C8.10283 3.8315 7.60483 3.3335 6.66216 3.3335C5.7195 3.3335 5.2215 3.8315 4.85816 4.1955C4.5315 4.52216 4.3715 4.66683 3.9975 4.66683C3.6235 4.66683 3.4635 4.52216 3.13683 4.1955C2.7735 3.8315 2.2755 3.3335 1.3335 3.3335V4.66683C1.7075 4.66683 1.8675 4.8115 2.19416 5.13816C2.5575 5.50216 3.0555 6.00016 3.9975 6.00016ZM3.9975 9.3335C4.9395 9.3335 5.4375 8.8355 5.80083 8.4715C6.1275 8.14483 6.28816 8.00016 6.66216 8.00016C7.03616 8.00016 7.19683 8.14483 7.5235 8.4715C7.88683 8.8355 8.38483 9.3335 9.3275 9.3335C10.2708 9.3335 10.7695 8.8355 11.1342 8.4715C11.4615 8.14483 11.6222 8.00016 11.9975 8.00016C12.3728 8.00016 12.5335 8.14483 12.8608 8.4715C13.2248 8.8355 13.7235 9.3335 14.6668 9.3335V8.00016C14.2915 8.00016 14.1308 7.8555 13.8035 7.52883C13.4395 7.16483 12.9408 6.66683 11.9975 6.66683C11.0542 6.66683 10.5562 7.16483 10.1915 7.52816C9.86416 7.8555 9.70416 8.00016 9.3275 8.00016C8.95283 8.00016 8.79283 7.8555 8.46616 7.52883C8.10283 7.16483 7.60483 6.66683 6.66216 6.66683C5.7195 6.66683 5.2215 7.16483 4.85816 7.52883C4.5315 7.8555 4.3715 8.00016 3.9975 8.00016C3.6235 8.00016 3.4635 7.8555 3.13683 7.52883C2.7735 7.16483 2.2755 6.66683 1.3335 6.66683V8.00016C1.7075 8.00016 1.8675 8.14483 2.19416 8.4715C2.5575 8.8355 3.0555 9.3335 3.9975 9.3335ZM3.9975 12.6668C4.9395 12.6668 5.4375 12.1688 5.80083 11.8048C6.1275 11.4782 6.28816 11.3335 6.66216 11.3335C7.03616 11.3335 7.19683 11.4782 7.5235 11.8048C7.88683 12.1688 8.38483 12.6668 9.3275 12.6668C10.2708 12.6668 10.7695 12.1688 11.1342 11.8048C11.4615 11.4782 11.6222 11.3335 11.9975 11.3335C12.3728 11.3335 12.5335 11.4782 12.8608 11.8048C13.2248 12.1688 13.7235 12.6668 14.6668 12.6668V11.3335C14.2915 11.3335 14.1308 11.1888 13.8035 10.8622C13.4395 10.4982 12.9408 10.0002 11.9975 10.0002C11.0542 10.0002 10.5562 10.4982 10.1915 10.8615C9.86416 11.1888 9.70416 11.3335 9.3275 11.3335C8.95283 11.3335 8.79283 11.1888 8.46616 10.8622C8.10283 10.4982 7.60483 10.0002 6.66216 10.0002C5.7195 10.0002 5.2215 10.4982 4.85816 10.8622C4.5315 11.1888 4.3715 11.3335 3.9975 11.3335C3.6235 11.3335 3.4635 11.1888 3.13683 10.8622C2.7735 10.4982 2.2755 10.0002 1.3335 10.0002V11.3335C1.7075 11.3335 1.8675 11.4782 2.19416 11.8048C2.5575 12.1688 3.0555 12.6668 3.9975 12.6668Z" fill="currentColor"/>
</svg>
