<svg width="16" height="16" viewBox="0 0 16 16" fill="currentColor" xmlns="http://www.w3.org/2000/svg">
<path d="M7.99982 3.99984C10.3578 3.99984 12.5578 4.90184 14.1952 6.53917L15.1378 5.5965C13.2492 3.70717 10.7138 2.6665 7.99982 2.6665C5.28582 2.66717 2.75048 3.70717 0.861816 5.5965L1.80448 6.53917C3.44182 4.90184 5.64182 3.99984 7.99982 3.99984ZM11.7805 9.53784C9.73115 7.4885 6.26848 7.4885 4.21915 9.53784L5.16182 10.4805C6.69982 8.9425 9.29982 8.9425 10.8378 10.4805L11.7805 9.53784Z" fill="currentColor"/>
<path d="M13.6246 7.5287C10.5766 4.47937 5.42398 4.47937 2.37598 7.5287L3.31864 8.47137C5.85664 5.93337 10.144 5.93337 12.682 8.47137L13.6246 7.5287Z" fill="currentColor"/>
<path d="M7.99984 13.3332C8.73622 13.3332 9.33317 12.7362 9.33317 11.9998C9.33317 11.2635 8.73622 10.6665 7.99984 10.6665C7.26346 10.6665 6.6665 11.2635 6.6665 11.9998C6.6665 12.7362 7.26346 13.3332 7.99984 13.3332Z" fill="currentColor"/>
</svg>
