<svg width="16" height="16" viewBox="0 0 16 16" fill="currentColor" xmlns="http://www.w3.org/2000/svg">
<path d="M4.6187 9.26391C4.34495 9.43628 4.18461 9.54469 4.01802 9.64141C3.80606 9.76386 3.55969 9.87539 3.39231 9.62113C3.22494 9.36686 3.37276 9.16096 3.61444 9.01355C3.85612 8.86614 4.06573 8.70157 4.30506 8.57288C4.54439 8.44419 4.62495 8.26558 4.62261 8.00352C4.614 6.96385 4.61635 5.92418 4.62261 4.88373C4.62261 4.27147 4.7063 4.19582 5.32653 4.19504C6.59046 4.19504 7.85516 4.20908 9.11909 4.19036C10.0975 4.17554 10.9 4.46724 11.3419 5.39304C11.7713 6.29232 11.5656 7.10892 10.8953 7.88341C11.1886 8.07839 11.471 8.27338 11.7619 8.45901C12.842 9.1399 13.3348 10.1312 13.2722 11.3861C13.2034 12.7479 12.5331 13.7353 11.259 14.2353C10.6411 14.4737 9.99625 14.6361 9.33887 14.7189C7.26778 14.9856 5.33591 14.6214 3.68874 13.2526C2.18287 12.0026 1.35903 10.3974 1.2172 8.43717C0.973956 5.02178 3.3665 1.99637 6.71794 1.32796C10.4831 0.576089 14.2116 3.22791 14.7309 7.04262C14.7684 7.32419 14.7856 7.60965 14.7989 7.89433C14.8107 8.13845 14.7434 8.35215 14.4485 8.35215C14.1678 8.35215 14.0684 8.15717 14.0676 7.90758C14.0676 6.91159 13.797 5.98736 13.3332 5.1107C12.2156 3.00406 9.64703 1.66177 7.31784 1.97999C4.67736 2.34189 2.54683 4.27381 2.05486 6.74468C1.37675 10.1764 3.5769 13.4202 7.04878 13.9724C8.37841 14.183 9.72994 14.1136 11.0017 13.5497C11.9934 13.1098 12.5073 12.3229 12.5495 11.2614C12.5871 10.3161 12.1444 9.58993 11.3544 9.0775C10.383 8.44497 9.40613 7.82179 8.44176 7.17989C8.21416 7.02858 8.04444 7.01533 7.81136 7.17288C7.10041 7.65332 6.36207 8.09945 5.65815 8.58926C5.58301 8.65142 5.52112 8.72796 5.47612 8.81436C5.43112 8.90076 5.40392 8.99528 5.39614 9.09232C5.36563 9.76698 5.38519 10.444 5.38128 11.1202C5.38128 11.2621 5.40552 11.4322 5.33982 11.5398C5.26161 11.6739 5.10518 11.8276 4.97144 11.8416C4.87289 11.8518 4.67579 11.6591 4.65859 11.5367C4.60775 11.1927 4.62261 10.8347 4.6187 10.4884C4.61557 10.1156 4.6187 9.74436 4.6187 9.26391ZM5.38988 7.86001C6.22051 7.32263 6.96823 6.85622 7.69561 6.36017C8.00377 6.15037 8.25562 6.16596 8.5497 6.37031C9.00803 6.68931 9.48826 6.97399 9.94815 7.29533C10.1679 7.45132 10.3267 7.42246 10.4761 7.22669C10.7936 6.8102 10.9454 6.35861 10.7319 5.84619C10.5183 5.33376 10.1554 4.96329 9.60245 4.94379C8.28925 4.90947 6.97292 4.92741 5.65815 4.94379C5.56821 4.94379 5.40396 5.09978 5.40161 5.18791C5.38206 6.04039 5.38988 6.89365 5.38988 7.85611V7.86001Z" fill="currentColor" stroke="currentColor" stroke-width="0.4"/>
</svg>
