<svg width="16" height="16" viewBox="0 0 16 16" fill="none" xmlns="http://www.w3.org/2000/svg">
<path d="M9.66659 7.83317C10.1268 7.83317 10.4999 7.46007 10.4999 6.99984C10.4999 6.5396 10.1268 6.1665 9.66659 6.1665C9.20635 6.1665 8.83325 6.5396 8.83325 6.99984C8.83325 7.46007 9.20635 7.83317 9.66659 7.83317Z" fill="#553C9A"/>
<path d="M6.33333 7.83317C6.79357 7.83317 7.16667 7.46007 7.16667 6.99984C7.16667 6.5396 6.79357 6.1665 6.33333 6.1665C5.8731 6.1665 5.5 6.5396 5.5 6.99984C5.5 7.46007 5.8731 7.83317 6.33333 7.83317Z" fill="#553C9A"/>
<path d="M15.2934 8.44C15.3201 8.3 15.3334 8.15333 15.3334 8C15.3334 7.84667 15.3201 7.7 15.2934 7.56C15.2097 7.06793 14.9899 6.60914 14.6588 6.23562C14.3277 5.8621 13.8986 5.58879 13.4201 5.44667C13.0689 4.70836 12.5723 4.04852 11.9601 3.50667C10.9067 2.56667 9.52008 2 8.00008 2C6.48008 2 5.09341 2.56667 4.04008 3.50667C3.42675 4.04667 2.92675 4.70667 2.58008 5.44667C2.10107 5.58781 1.67141 5.86082 1.34015 6.23451C1.0089 6.6082 0.789411 7.06752 0.706748 7.56C0.680081 7.7 0.666748 7.84667 0.666748 8C0.666748 8.15333 0.680081 8.3 0.706748 8.44C0.790447 8.93207 1.0103 9.39086 1.3414 9.76438C1.6725 10.1379 2.1016 10.4112 2.58008 10.5533C2.92671 11.287 3.4189 11.9425 4.02675 12.48C5.08008 13.4267 6.47341 14 8.00008 14C9.52675 14 10.9201 13.4267 11.9801 12.48C12.5801 11.9467 13.0801 11.2867 13.4267 10.5533C13.9044 10.4108 14.3325 10.1373 14.6624 9.76372C14.9924 9.39016 15.211 8.93156 15.2934 8.44ZM12.6667 9.33333C12.6001 9.33333 12.5401 9.32 12.4734 9.31333C12.3401 9.76 12.1467 10.1733 11.9001 10.5533C11.0667 11.8267 9.63341 12.6667 8.00008 12.6667C6.36675 12.6667 4.93341 11.8267 4.10008 10.5533C3.85341 10.1733 3.66008 9.76 3.52675 9.31333C3.46008 9.32 3.40008 9.33333 3.33341 9.33333C2.60008 9.33333 2.00008 8.73333 2.00008 8C2.00008 7.26667 2.60008 6.66667 3.33341 6.66667C3.40008 6.66667 3.46008 6.68 3.52675 6.68667C3.66008 6.24 3.85341 5.82667 4.10008 5.44667C4.93341 4.17333 6.36675 3.33333 8.00008 3.33333C9.63341 3.33333 11.0667 4.17333 11.9001 5.44667C12.1467 5.82667 12.3401 6.24 12.4734 6.68667C12.5401 6.68 12.6001 6.66667 12.6667 6.66667C13.4001 6.66667 14.0001 7.26667 14.0001 8C14.0001 8.73333 13.4001 9.33333 12.6667 9.33333ZM5.00008 9.33333C5.50675 10.5133 6.66008 11.3333 8.00008 11.3333C9.34008 11.3333 10.4934 10.5133 11.0001 9.33333H5.00008Z" fill="#553C9A"/>
</svg>
