<svg width="16" height="16" viewBox="0 0 16 16" fill="currentColor" xmlns="http://www.w3.org/2000/svg">
<path d="M9.66683 7.83317C10.1271 7.83317 10.5002 7.46007 10.5002 6.99984C10.5002 6.5396 10.1271 6.1665 9.66683 6.1665C9.20659 6.1665 8.8335 6.5396 8.8335 6.99984C8.8335 7.46007 9.20659 7.83317 9.66683 7.83317Z" fill="currentColor"/>
<path d="M6.33333 7.83317C6.79357 7.83317 7.16667 7.46007 7.16667 6.99984C7.16667 6.5396 6.79357 6.1665 6.33333 6.1665C5.8731 6.1665 5.5 6.5396 5.5 6.99984C5.5 7.46007 5.8731 7.83317 6.33333 7.83317Z" fill="currentColor"/>
<path d="M15.2932 8.44C15.3198 8.3 15.3332 8.15333 15.3332 8C15.3332 7.84667 15.3198 7.7 15.2932 7.56C15.2095 7.06793 14.9896 6.60914 14.6585 6.23562C14.3274 5.8621 13.8983 5.58879 13.4198 5.44667C13.0686 4.70836 12.5721 4.04852 11.9598 3.50667C10.9065 2.56667 9.51984 2 7.99984 2C6.47984 2 5.09317 2.56667 4.03984 3.50667C3.4265 4.04667 2.9265 4.70667 2.57984 5.44667C2.10083 5.58781 1.67116 5.86082 1.33991 6.23451C1.00866 6.6082 0.789167 7.06752 0.706504 7.56C0.679837 7.7 0.666504 7.84667 0.666504 8C0.666504 8.15333 0.679837 8.3 0.706504 8.44C0.790203 8.93207 1.01006 9.39086 1.34116 9.76438C1.67226 10.1379 2.10136 10.4112 2.57984 10.5533C2.92646 11.287 3.41866 11.9425 4.0265 12.48C5.07984 13.4267 6.47317 14 7.99984 14C9.5265 14 10.9198 13.4267 11.9798 12.48C12.5798 11.9467 13.0798 11.2867 13.4265 10.5533C13.9041 10.4108 14.3322 10.1373 14.6622 9.76372C14.9921 9.39016 15.2107 8.93156 15.2932 8.44ZM12.6665 9.33333C12.5998 9.33333 12.5398 9.32 12.4732 9.31333C12.3398 9.76 12.1465 10.1733 11.8998 10.5533C11.0665 11.8267 9.63317 12.6667 7.99984 12.6667C6.3665 12.6667 4.93317 11.8267 4.09984 10.5533C3.85317 10.1733 3.65984 9.76 3.5265 9.31333C3.45984 9.32 3.39984 9.33333 3.33317 9.33333C2.59984 9.33333 1.99984 8.73333 1.99984 8C1.99984 7.26667 2.59984 6.66667 3.33317 6.66667C3.39984 6.66667 3.45984 6.68 3.5265 6.68667C3.65984 6.24 3.85317 5.82667 4.09984 5.44667C4.93317 4.17333 6.3665 3.33333 7.99984 3.33333C9.63317 3.33333 11.0665 4.17333 11.8998 5.44667C12.1465 5.82667 12.3398 6.24 12.4732 6.68667C12.5398 6.68 12.5998 6.66667 12.6665 6.66667C13.3998 6.66667 13.9998 7.26667 13.9998 8C13.9998 8.73333 13.3998 9.33333 12.6665 9.33333ZM4.99984 9.33333C5.5065 10.5133 6.65984 11.3333 7.99984 11.3333C9.33984 11.3333 10.4932 10.5133 10.9998 9.33333H4.99984Z" fill="currentColor"/>
</svg>
