<svg width="16" height="16" viewBox="0 0 16 16" fill="currentColor" xmlns="http://www.w3.org/2000/svg">
<path d="M12.6133 1.33984C12.48 0.946504 12.1067 0.666504 11.6667 0.666504H4.33333C3.89333 0.666504 3.52667 0.946504 3.38667 1.33984L2 5.33317V10.6665C2 11.0332 2.3 11.3332 2.66667 11.3332H3.33333C3.7 11.3332 4 11.0332 4 10.6665V9.99984H12V10.6665C12 11.0332 12.3 11.3332 12.6667 11.3332H13.3333C13.7 11.3332 14 11.0332 14 10.6665V5.33317L12.6133 1.33984ZM4.33333 7.99984C3.78 7.99984 3.33333 7.55317 3.33333 6.99984C3.33333 6.4465 3.78 5.99984 4.33333 5.99984C4.88667 5.99984 5.33333 6.4465 5.33333 6.99984C5.33333 7.55317 4.88667 7.99984 4.33333 7.99984ZM11.6667 7.99984C11.1133 7.99984 10.6667 7.55317 10.6667 6.99984C10.6667 6.4465 11.1133 5.99984 11.6667 5.99984C12.22 5.99984 12.6667 6.4465 12.6667 6.99984C12.6667 7.55317 12.22 7.99984 11.6667 7.99984ZM3.33333 4.6665L4.33333 1.6665H11.6667L12.6667 4.6665H3.33333ZM4.66667 13.3332H7.33333V11.9998L11.3333 13.9998H8.66667V15.3332L4.66667 13.3332Z" fill="currentColor"/>
</svg>
