<svg width="16" height="16" viewBox="0 0 16 16" fill="none" xmlns="http://www.w3.org/2000/svg">
<path d="M13.7133 9.90683L14.6666 8.9535L13.7133 8.00016L11.3333 10.3802L5.61992 4.66683L7.99992 2.28683L7.04659 1.3335L6.09325 2.28683L5.13992 1.3335L3.71325 2.76016L2.75992 1.80683L1.80659 2.76016L2.75992 3.7135L1.33325 5.14016L2.28659 6.0935L1.33325 7.04683L2.28659 8.00016L4.66659 5.62016L10.3799 11.3335L7.99992 13.7135L8.95325 14.6668L9.90659 13.7135L10.8599 14.6668L12.2866 13.2402L13.2399 14.1935L14.1933 13.2402L13.2399 12.2868L14.6666 10.8602L13.7133 9.90683Z" fill="#553C9A"/>
</svg>
