<svg width="16" height="16" viewBox="0 0 16 16" fill="currentColor" xmlns="http://www.w3.org/2000/svg">
<path d="M8.00016 13.3332H1.3335V11.9998H5.16683C4.92576 11.0788 4.44348 10.2387 3.76969 9.56607C3.09589 8.89345 2.25495 8.41264 1.3335 8.17317C1.76016 8.0665 2.20683 7.99984 2.66683 7.99984C5.6135 7.99984 8.00016 10.3865 8.00016 13.3332ZM14.6668 8.17317C14.2402 8.0665 13.7935 7.99984 13.3335 7.99984C11.3802 7.99984 9.68016 9.05317 8.74683 10.6198C9.13181 11.4725 9.32958 12.3977 9.32683 13.3332H14.6602V11.9998H10.8268C11.0703 11.0789 11.5542 10.2392 12.2289 9.56682C12.9037 8.89441 13.745 8.41344 14.6668 8.17317ZM10.4268 7.3465C10.9433 5.96511 11.9019 4.79319 13.1535 4.01317C10.2935 4.1065 8.00016 6.4465 8.00016 9.33317V9.3465C8.6335 8.49984 9.46683 7.81317 10.4268 7.3465ZM7.6135 5.89984C7.33743 5.17467 6.91584 4.5137 6.37467 3.95763C5.83351 3.40156 5.18423 2.96216 4.46683 2.6665C5.42683 3.9065 6.00016 5.45317 6.00016 7.13984C6.00016 7.27984 5.98016 7.41317 5.9735 7.5465C6.26016 7.7065 6.52683 7.89317 6.78683 8.09317C6.92945 7.31863 7.20941 6.57583 7.6135 5.89984Z" fill="currentColor"/>
</svg>
