<svg width="16" height="16" viewBox="0 0 16 16" fill="none" xmlns="http://www.w3.org/2000/svg">
<path fill-rule="evenodd" clip-rule="evenodd" d="M6 11.3332L8 9.37317C7.77865 9.34792 7.55611 9.33457 7.33333 9.33317C5.55333 9.33317 2 10.2265 2 11.9998V13.3332H8L6 11.3332ZM7.33333 7.99984C8.80667 7.99984 10 6.8065 10 5.33317C10 3.85984 8.80667 2.6665 7.33333 2.6665C5.86 2.6665 4.66667 3.85984 4.66667 5.33317C4.66667 6.8065 5.86 7.99984 7.33333 7.99984ZM10.3133 13.6665L8 11.3332L8.93333 10.3932L10.3133 11.7798L13.7333 8.33317L14.6667 9.27317L10.3133 13.6665Z" fill="#553C9A"/>
</svg>
