<svg width="16" height="16" viewBox="0 0 16 16" fill="currentColor" xmlns="http://www.w3.org/2000/svg">
<path d="M6.00016 14.0002C6.00016 14.3668 6.30016 14.6668 6.66683 14.6668H9.3335C9.70016 14.6668 10.0002 14.3668 10.0002 14.0002V13.3335H6.00016V14.0002ZM8.00016 1.3335C5.42683 1.3335 3.3335 3.42683 3.3335 6.00016C3.3335 7.58683 4.12683 8.98016 5.3335 9.82683V11.3335C5.3335 11.7002 5.6335 12.0002 6.00016 12.0002H10.0002C10.3668 12.0002 10.6668 11.7002 10.6668 11.3335V9.82683C11.8735 8.98016 12.6668 7.58683 12.6668 6.00016C12.6668 3.42683 10.5735 1.3335 8.00016 1.3335ZM9.3335 9.1335V10.6668H6.66683V9.1335C5.6535 8.42016 4.66683 7.68683 4.66683 6.00016C4.66683 4.16016 6.16016 2.66683 8.00016 2.66683C9.84016 2.66683 11.3335 4.16016 11.3335 6.00016C11.3335 7.66016 10.3268 8.4335 9.3335 9.1335Z" fill="currentColor"/>
</svg>
