<svg width="16" height="16" viewBox="0 0 16 16" fill="currentColor" xmlns="http://www.w3.org/2000/svg">
<path d="M12.2335 7.6335V6.00016C12.2335 5.26683 11.6335 4.66683 10.9002 4.66683H8.66683C8.42016 4.66683 8.18683 4.74683 8.00016 4.88016C7.8135 4.74683 7.58016 4.66683 7.3335 4.66683H5.10016C4.36683 4.66683 3.76683 5.26683 3.76683 6.00016V7.6335C3.50016 7.94016 3.3335 8.34016 3.3335 8.78016V11.3335H4.3335V10.3335H11.6668V11.3335H12.6668V8.78016C12.6668 8.34016 12.5002 7.94016 12.2335 7.6335ZM11.1668 7.00016H8.50016V5.66683H11.1668V7.00016ZM4.8335 5.66683H7.50016V7.00016H4.8335V5.66683ZM11.6668 9.3335H4.3335V8.66683C4.3335 8.30016 4.6335 8.00016 5.00016 8.00016H11.0002C11.3668 8.00016 11.6668 8.30016 11.6668 8.66683V9.3335ZM13.3335 2.66683V13.3335H2.66683V2.66683H13.3335ZM13.3335 1.3335H2.66683C1.9335 1.3335 1.3335 1.9335 1.3335 2.66683V13.3335C1.3335 14.0668 1.9335 14.6668 2.66683 14.6668H13.3335C14.0668 14.6668 14.6668 14.0668 14.6668 13.3335V2.66683C14.6668 1.9335 14.0668 1.3335 13.3335 1.3335Z" fill="currentColor"/>
</svg>
