<svg width="16" height="16" viewBox="0 0 16 16" fill="currentColor" xmlns="http://www.w3.org/2000/svg">
<path d="M6.66667 6.66683V8.00016H5.33333V6.66683H6.66667ZM10.6667 8.00016V6.66683H9.33333V8.00016H10.6667ZM14 9.3335V14.6668H2V9.3335H2.66667V6.66683C2.66667 3.72016 5.05333 1.3335 8 1.3335C10.9467 1.3335 13.3333 3.72016 13.3333 6.66683V9.3335H14ZM4.66667 10.6668H3.33333V13.3335H4.66667V10.6668ZM7.33333 10.6668H6V13.3335H7.33333V10.6668ZM7.33333 2.72016C5.44 3.04016 4 4.68683 4 6.66683V9.3335H7.33333V2.72016ZM8.66667 9.3335H12V6.66683C12 4.68683 10.56 3.04016 8.66667 2.72016V9.3335ZM10 10.6668H8.66667V13.3335H10V10.6668ZM12.6667 10.6668H11.3333V13.3335H12.6667V10.6668Z" fill="currentColor"/>
</svg>
