<svg width="16" height="16" viewBox="0 0 16 16" fill="currentColor" xmlns="http://www.w3.org/2000/svg">
<path d="M4.5065 3.2267L3.3065 2.03337L2.3665 2.97337L3.55984 4.1667L4.5065 3.2267ZM0.666504 7.00003H2.6665V8.33337H0.666504V7.00003ZM7.33317 0.366699H8.6665V2.33337H7.33317V0.366699ZM12.6932 2.03003L13.6318 2.96803L12.4385 4.16137L11.5005 3.2227L12.6932 2.03003ZM11.4932 12.1067L12.6865 13.3067L13.6265 12.3667L12.4265 11.1734L11.4932 12.1067ZM13.3332 7.00003H15.3332V8.33337H13.3332V7.00003ZM7.99984 3.6667C5.79317 3.6667 3.99984 5.46003 3.99984 7.6667C3.99984 9.87337 5.79317 11.6667 7.99984 11.6667C10.2065 11.6667 11.9998 9.87337 11.9998 7.6667C11.9998 5.46003 10.2065 3.6667 7.99984 3.6667ZM7.99984 10.3334C6.5265 10.3334 5.33317 9.14003 5.33317 7.6667C5.33317 6.19337 6.5265 5.00003 7.99984 5.00003C9.47317 5.00003 10.6665 6.19337 10.6665 7.6667C10.6665 9.14003 9.47317 10.3334 7.99984 10.3334ZM7.33317 13H8.6665V14.9667H7.33317V13ZM2.3665 12.36L3.3065 13.3L4.49984 12.1L3.55984 11.16L2.3665 12.36Z" fill="currentColor"/>
</svg>
