<svg width="16" height="16" viewBox="0 0 16 16" fill="currentColor" xmlns="http://www.w3.org/2000/svg">
<path d="M10.3268 6.42016C10.2068 4.56016 9.4535 2.74683 8.04016 1.3335C6.67237 2.69428 5.83344 4.4974 5.6735 6.42016C6.52683 6.8735 7.3135 7.46016 8.00016 8.1735C8.68683 7.46683 9.4735 6.88016 10.3268 6.42016ZM8.0335 3.46016C8.4535 4.14683 8.74683 4.9135 8.90016 5.7135C8.58683 5.9135 8.2935 6.1335 8.00683 6.36683C7.72683 6.14016 7.42683 5.92016 7.12016 5.72016C7.28683 4.92016 7.5935 4.1535 8.0335 3.46016ZM8.00016 10.3002C7.45704 9.46973 6.76549 8.74653 5.96016 8.16683C5.8735 8.10683 5.78016 8.06016 5.6935 7.9935C5.78016 8.0535 5.8735 8.10683 5.9535 8.16016C4.60996 7.18675 2.9926 6.66397 1.3335 6.66683C1.3335 10.2135 3.5735 13.2135 6.68683 14.3268C7.10683 14.4802 7.54683 14.5935 8.00016 14.6668C8.4535 14.5868 8.88683 14.4735 9.3135 14.3268C12.4268 13.2135 14.6668 10.2135 14.6668 6.66683C11.8802 6.66683 9.4335 8.1135 8.00016 10.3002ZM8.88016 13.0668C8.58683 13.1668 8.2935 13.2468 7.9935 13.3135C7.70016 13.2535 7.4135 13.1735 7.14016 13.0735C4.94683 12.2868 3.34016 10.4135 2.84016 8.1735C3.5735 8.34683 4.2735 8.64683 4.92016 9.06016L4.90683 9.06683C4.9935 9.12683 5.08016 9.18683 5.16683 9.2335L5.2135 9.26016C5.8735 9.74016 6.44016 10.3335 6.88683 11.0268L8.00016 12.7335L9.1135 11.0335C9.56373 10.3452 10.1352 9.74429 10.8002 9.26016L10.8468 9.22683C10.9068 9.1935 10.9668 9.1535 11.0268 9.1135L11.0202 9.10016C11.6735 8.66683 12.4002 8.34683 13.1602 8.16683C12.6602 10.4135 11.0602 12.2868 8.88016 13.0668ZM5.9935 8.18683C5.98016 8.18016 5.96683 8.16683 5.96016 8.16016C5.96016 8.16016 5.96683 8.16016 5.96683 8.16683C5.9735 8.1735 5.98016 8.18016 5.9935 8.18683Z" fill="currentColor"/>
</svg>
