<svg width="16" height="16" viewBox="0 0 16 16" fill="currentColor" xmlns="http://www.w3.org/2000/svg">
<path d="M2.6665 12H13.3332C14.0665 12 14.6598 11.4 14.6598 10.6667L14.6665 3.33333C14.6665 2.6 14.0665 2 13.3332 2H2.6665C1.93317 2 1.33317 2.6 1.33317 3.33333V10.6667C1.33317 11.4 1.93317 12 2.6665 12ZM2.6665 3.33333H13.3332V10.6667H2.6665V3.33333ZM0.666504 12.6667H15.3332V14H0.666504V12.6667Z" fill="currentColor"/>
<path d="M9.31313 5.01996C8.39979 4.10663 6.92646 4.10663 6.01313 5.01996C5.09979 5.93329 5.09979 7.40663 6.01313 8.31996C6.79979 9.10663 8.01312 9.21329 8.91979 8.63329L10.3131 10.0266L11.0198 9.31996L9.62646 7.92663C10.2065 7.01996 10.1065 5.80663 9.31313 5.01996ZM8.60646 7.60663C8.08646 8.12663 7.23979 8.12663 6.71979 7.60663C6.19979 7.08663 6.19979 6.23996 6.71979 5.71996C7.23979 5.19996 8.08646 5.19996 8.60646 5.71996C9.12646 6.24663 9.12646 7.08663 8.60646 7.60663Z" fill="currentColor"/>
</svg>
