<svg width="16" height="16" viewBox="0 0 16 16" fill="none" xmlns="http://www.w3.org/2000/svg">
<path d="M7.99992 13.3332H1.33325V11.9998H5.16659C4.92551 11.0788 4.44324 10.2387 3.76944 9.56607C3.09565 8.89345 2.2547 8.41264 1.33325 8.17317C1.75992 8.0665 2.20659 7.99984 2.66659 7.99984C5.61325 7.99984 7.99992 10.3865 7.99992 13.3332ZM14.6666 8.17317C14.2399 8.0665 13.7933 7.99984 13.3333 7.99984C11.3799 7.99984 9.67992 9.05317 8.74659 10.6198C9.13156 11.4725 9.32934 12.3977 9.32659 13.3332H14.6599V11.9998H10.8266C11.0701 11.0789 11.554 10.2392 12.2287 9.56682C12.9035 8.89441 13.7448 8.41344 14.6666 8.17317ZM10.4266 7.3465C10.943 5.96511 11.9016 4.79319 13.1533 4.01317C10.2933 4.1065 7.99992 6.4465 7.99992 9.33317V9.3465C8.63325 8.49984 9.46659 7.81317 10.4266 7.3465ZM7.61325 5.89984C7.33719 5.17467 6.91559 4.5137 6.37443 3.95763C5.83326 3.40156 5.18398 2.96216 4.46659 2.6665C5.42659 3.9065 5.99992 5.45317 5.99992 7.13984C5.99992 7.27984 5.97992 7.41317 5.97325 7.5465C6.25992 7.7065 6.52659 7.89317 6.78659 8.09317C6.92921 7.31863 7.20917 6.57583 7.61325 5.89984Z" fill="#553C9A"/>
</svg>
