<svg width="16" height="16" viewBox="0 0 16 16" fill="currentColor" xmlns="http://www.w3.org/2000/svg">
<path d="M7.99984 2L0.666504 7.6L1.47317 8.66L2.6665 7.74667V14H13.3332V7.74667L14.5265 8.65333L15.3332 7.6L7.99984 2ZM11.9998 12.6667H3.99984V6.73333L7.99984 3.68L11.9998 6.73333V12.6667ZM5.99984 9.33333C5.99984 9.7 5.69984 10 5.33317 10C4.9665 10 4.6665 9.7 4.6665 9.33333C4.6665 8.96667 4.9665 8.66667 5.33317 8.66667C5.69984 8.66667 5.99984 8.96667 5.99984 9.33333ZM7.99984 8.66667C8.3665 8.66667 8.6665 8.96667 8.6665 9.33333C8.6665 9.7 8.3665 10 7.99984 10C7.63317 10 7.33317 9.7 7.33317 9.33333C7.33317 8.96667 7.63317 8.66667 7.99984 8.66667ZM9.99984 9.33333C9.99984 8.96667 10.2998 8.66667 10.6665 8.66667C11.0332 8.66667 11.3332 8.96667 11.3332 9.33333C11.3332 9.7 11.0332 10 10.6665 10C10.2998 10 9.99984 9.7 9.99984 9.33333Z" fill="currentColor"/>
</svg>
