<svg width="16" height="16" viewBox="0 0 16 16" fill="currentColor" xmlns="http://www.w3.org/2000/svg">
<path d="M5.99984 2.6665C3.05317 2.6665 0.666504 5.05317 0.666504 7.99984C0.666504 10.9465 3.05317 13.3332 5.99984 13.3332C8.9465 13.3332 11.3332 10.9465 11.3332 7.99984C11.3332 5.05317 8.9465 2.6665 5.99984 2.6665ZM5.99984 11.9998C3.79317 11.9998 1.99984 10.2065 1.99984 7.99984C1.99984 5.79317 3.79317 3.99984 5.99984 3.99984C8.2065 3.99984 9.99984 5.79317 9.99984 7.99984C9.99984 10.2065 8.2065 11.9998 5.99984 11.9998ZM11.3332 2.83984V4.23317C12.1129 4.50772 12.7883 5.01751 13.266 5.69218C13.7437 6.36685 14.0003 7.17316 14.0003 7.99984C14.0003 8.82652 13.7437 9.63282 13.266 10.3075C12.7883 10.9822 12.1129 11.492 11.3332 11.7665V13.1598C13.6332 12.5665 15.3332 10.4865 15.3332 7.99984C15.3332 5.51317 13.6332 3.43317 11.3332 2.83984Z" fill="currentColor"/>
</svg>
