<svg width="16" height="16" viewBox="0 0 16 16" fill="currentColor" xmlns="http://www.w3.org/2000/svg">
<path d="M3.00016 7.99984C3.92064 7.99984 4.66683 7.25365 4.66683 6.33317C4.66683 5.4127 3.92064 4.6665 3.00016 4.6665C2.07969 4.6665 1.3335 5.4127 1.3335 6.33317C1.3335 7.25365 2.07969 7.99984 3.00016 7.99984Z" fill="currentColor"/>
<path d="M6.00016 5.33333C6.92064 5.33333 7.66683 4.58714 7.66683 3.66667C7.66683 2.74619 6.92064 2 6.00016 2C5.07969 2 4.3335 2.74619 4.3335 3.66667C4.3335 4.58714 5.07969 5.33333 6.00016 5.33333Z" fill="currentColor"/>
<path d="M10.0002 5.33333C10.9206 5.33333 11.6668 4.58714 11.6668 3.66667C11.6668 2.74619 10.9206 2 10.0002 2C9.07969 2 8.3335 2.74619 8.3335 3.66667C8.3335 4.58714 9.07969 5.33333 10.0002 5.33333Z" fill="currentColor"/>
<path d="M13.0002 7.99984C13.9206 7.99984 14.6668 7.25365 14.6668 6.33317C14.6668 5.4127 13.9206 4.6665 13.0002 4.6665C12.0797 4.6665 11.3335 5.4127 11.3335 6.33317C11.3335 7.25365 12.0797 7.99984 13.0002 7.99984Z" fill="currentColor"/>
<path d="M11.5598 9.90667C10.9798 9.22667 10.4931 8.64667 9.90644 7.96667C9.59977 7.60667 9.20644 7.24667 8.73977 7.08667C8.66644 7.06 8.5931 7.04 8.51977 7.02667C8.3531 7 8.1731 7 7.99977 7C7.82644 7 7.64644 7 7.4731 7.03333C7.39977 7.04667 7.32644 7.06667 7.2531 7.09333C6.78644 7.25333 6.39977 7.61333 6.08644 7.97333C5.50644 8.65333 5.01977 9.23333 4.4331 9.91333C3.55977 10.7867 2.48644 11.7533 2.68644 13.1067C2.87977 13.7867 3.36644 14.46 4.23977 14.6533C4.72644 14.7533 6.27977 14.36 7.9331 14.36H8.0531C9.70644 14.36 11.2598 14.7467 11.7464 14.6533C12.6198 14.46 13.1064 13.78 13.2998 13.1067C13.5064 11.7467 12.4331 10.78 11.5598 9.90667Z" fill="currentColor"/>
</svg>
