<svg width="16" height="16" viewBox="0 0 16 16" fill="currentColor" xmlns="http://www.w3.org/2000/svg">
<path d="M12.6667 12.6667H14V14H12.6667V12.6667ZM12.6667 11.3333H14V10H12.6667V11.3333ZM2 8.66667H3.33333V7.33333H2V8.66667ZM2 11.3333H3.33333V10H2V11.3333ZM2 6H3.33333V4.66667H2V6ZM2 3.33333H3.33333V2H2V3.33333ZM4.66667 3.33333H6V2H4.66667V3.33333ZM10 14H11.3333V12.6667H10V14ZM7.33333 14H8.66667V12.6667H7.33333V14ZM10 14H11.3333V12.6667H10V14ZM4.66667 14H6V12.6667H4.66667V14ZM2 14H3.33333V12.6667H2V14ZM14 5.33333C14 3.49333 12.5067 2 10.6667 2H7.33333V3.33333H10.6667C11.7667 3.33333 12.6667 4.23333 12.6667 5.33333V8.66667H14V5.33333Z" fill="currentColor"/>
</svg>
