<svg width="16" height="16" viewBox="0 0 16 16" fill="currentColor" xmlns="http://www.w3.org/2000/svg">
<path d="M13.0132 1.65981C11.4532 0.099809 8.5999 0.413142 6.64656 2.36648C5.5799 3.43314 4.96656 4.94648 4.95323 6.00648C4.9399 7.05981 5.12656 8.59981 4.05323 9.67314L1.22656 12.4998L2.17323 13.4465L4.9999 10.6198C6.07323 9.54648 7.61323 9.73314 8.66656 9.71981C9.7199 9.70648 11.2399 9.09314 12.3066 8.02648C14.2532 6.07314 14.5732 3.21981 13.0132 1.65981ZM6.8799 7.78648C5.8599 6.76648 6.1799 4.71314 7.58656 3.30648C8.99323 1.89981 11.0399 1.57981 12.0666 2.59981C13.0866 3.61981 12.7666 5.67314 11.3599 7.07981C9.95323 8.48648 7.90656 8.80648 6.8799 7.78648ZM11.9999 11.3331C12.3532 11.3331 12.6932 11.4731 12.9399 11.7265C13.4599 12.2465 13.4599 13.0931 12.9399 13.6131C12.6932 13.8598 12.3532 13.9998 11.9999 13.9998C11.6466 13.9998 11.3066 13.8598 11.0599 13.6065C10.5399 13.0865 10.5399 12.2398 11.0599 11.7198C11.3066 11.4731 11.6466 11.3331 11.9999 11.3331ZM11.9999 9.99981C11.4719 9.99875 10.9555 10.1545 10.5161 10.4474C10.0768 10.7403 9.73435 11.1571 9.53224 11.6449C9.33012 12.1327 9.27744 12.6695 9.38088 13.1873C9.48432 13.7051 9.73921 14.1804 10.1132 14.5531C10.6332 15.0731 11.3199 15.3331 11.9999 15.3331C12.5279 15.3342 13.0443 15.1784 13.4837 14.8855C13.923 14.5926 14.2654 14.1759 14.4676 13.6881C14.6697 13.2003 14.7223 12.6635 14.6189 12.1457C14.5155 11.6279 14.2606 11.1525 13.8866 10.7798C13.6388 10.5322 13.3446 10.3358 13.0209 10.202C12.6971 10.0682 12.3502 9.99946 11.9999 9.99981Z" fill="currentColor"/>
</svg>
