<svg width="16" height="16" viewBox="0 0 16 16" fill="currentColor" xmlns="http://www.w3.org/2000/svg">
<path d="M8.00016 10.6668C10.5802 10.6668 12.6668 8.58016 12.6668 6.00016C12.6668 3.42016 10.5802 1.3335 8.00016 1.3335C5.42016 1.3335 3.3335 3.42016 3.3335 6.00016C3.3335 8.58016 5.42016 10.6668 8.00016 10.6668ZM8.00016 2.66683C9.84016 2.66683 11.3335 4.16016 11.3335 6.00016C11.3335 7.84016 9.84016 9.3335 8.00016 9.3335C6.16016 9.3335 4.66683 7.84016 4.66683 6.00016C4.66683 4.16016 6.16016 2.66683 8.00016 2.66683Z" fill="currentColor"/>
<path d="M6.66667 5.99984C7.03486 5.99984 7.33333 5.70136 7.33333 5.33317C7.33333 4.96498 7.03486 4.6665 6.66667 4.6665C6.29848 4.6665 6 4.96498 6 5.33317C6 5.70136 6.29848 5.99984 6.66667 5.99984Z" fill="currentColor"/>
<path d="M9.33317 5.99984C9.70136 5.99984 9.99984 5.70136 9.99984 5.33317C9.99984 4.96498 9.70136 4.6665 9.33317 4.6665C8.96498 4.6665 8.6665 4.96498 8.6665 5.33317C8.6665 5.70136 8.96498 5.99984 9.33317 5.99984Z" fill="currentColor"/>
<path d="M8.00016 4.66683C8.36835 4.66683 8.66683 4.36835 8.66683 4.00016C8.66683 3.63197 8.36835 3.3335 8.00016 3.3335C7.63197 3.3335 7.3335 3.63197 7.3335 4.00016C7.3335 4.36835 7.63197 4.66683 8.00016 4.66683Z" fill="currentColor"/>
<path d="M4.6665 12.6668H5.99984C6.73317 12.6668 7.33317 13.2668 7.33317 14.0002V14.6668H8.6665V14.0002C8.6665 13.2668 9.2665 12.6668 9.99984 12.6668H11.3332V11.3335H4.6665V12.6668Z" fill="currentColor"/>
</svg>
