<svg width="16" height="16" viewBox="0 0 16 16" fill="currentColor" xmlns="http://www.w3.org/2000/svg">
<path d="M8.99984 0.446777C8.99984 0.446777 9.49317 2.21344 9.49317 3.64678C9.49317 5.02011 8.59317 6.13344 7.21984 6.13344C5.83984 6.13344 4.79984 5.02011 4.79984 3.64678L4.81984 3.40678C3.47317 5.00678 2.6665 7.08011 2.6665 9.33344C2.6665 12.2801 5.05317 14.6668 7.99984 14.6668C10.9465 14.6668 13.3332 12.2801 13.3332 9.33344C13.3332 5.74011 11.6065 2.53344 8.99984 0.446777ZM7.8065 12.6668C6.61984 12.6668 5.65984 11.7334 5.65984 10.5734C5.65984 9.49344 6.35984 8.73344 7.53317 8.49344C8.71317 8.25344 9.93317 7.68678 10.6132 6.77344C10.8732 7.63344 11.0065 8.54011 11.0065 9.46678C11.0065 11.2334 9.57317 12.6668 7.8065 12.6668Z" fill="currentColor"/>
</svg>
